Arrow_Regular.ufo
<glyph name="exclam" format="1">
  <advance width="243"/>
  <unicode hex="0021"/>
  <outline>
    <contour>
      <point x="106" y="221" type="line"/>
      <point x="137" y="221" type="line"/>
      <point x="180" y="664" type="line"/>
      <point x="63" y="664" type="line"/>
    </contour>
    <contour>
      <point x="121" y="-10" type="curve" smooth="yes"/>
      <point x="158" y="-10"/>
      <point x="183" y="16"/>
      <point x="183" y="53" type="curve" smooth="yes"/>
      <point x="183" y="90"/>
      <point x="158" y="115"/>
      <point x="121" y="115" type="curve" smooth="yes"/>
      <point x="85" y="115"/>
      <point x="60" y="89"/>
      <point x="60" y="53" type="curve" smooth="yes"/>
      <point x="60" y="16"/>
      <point x="84" y="-10"/>
    </contour>
  </outline>
</glyph>
<glyph name="quotedbl" format="1">
  <advance width="347"/>
  <unicode hex="0022"/>
  <outline>
    <contour>
      <point x="35" y="750" type="line"/>
      <point x="35" y="543" type="line"/>
      <point x="77" y="543" type="line"/>
      <point x="119" y="750" type="line"/>
    </contour>
    <contour>
      <point x="185" y="750" type="line"/>
      <point x="185" y="543" type="line"/>
      <point x="227" y="543" type="line"/>
      <point x="269" y="750" type="line"/>
    </contour>
  </outline>
</glyph>
<glyph name="numbersign" format="1">
  <advance width="648"/>
  <unicode hex="0023"/>
  <outline>
    <contour>
      <point x="324" y="-16" type="line"/>
      <point x="371" y="-16" type="line"/>
      <point x="417" y="213" type="line"/>
      <point x="560" y="213" type="line"/>
      <point x="575" y="256" type="line"/>
      <point x="570" y="263" type="line"/>
      <point x="427" y="263" type="line"/>
      <point x="462" y="440" type="line"/>
      <point x="606" y="440" type="line"/>
      <point x="621" y="483" type="line"/>
      <point x="616" y="490" type="line"/>
      <point x="472" y="490" type="line"/>
      <point x="519" y="721" type="line"/>
      <point x="513" y="729" type="line"/>
      <point x="466" y="729" type="line"/>
      <point x="418" y="490" type="line"/>
      <point x="295" y="490" type="line"/>
      <point x="342" y="721" type="line"/>
      <point x="336" y="729" type="line"/>
      <point x="289" y="729" type="line"/>
      <point x="241" y="490" type="line"/>
      <point x="93" y="490" type="line"/>
      <point x="78" y="446" type="line"/>
      <point x="83" y="440" type="line"/>
      <point x="231" y="440" type="line"/>
      <point x="195" y="263" type="line"/>
      <point x="47" y="263" type="line"/>
      <point x="32" y="219" type="line"/>
      <point x="37" y="213" type="line"/>
      <point x="185" y="213" type="line"/>
      <point x="141" y="-8" type="line"/>
      <point x="147" y="-16" type="line"/>
      <point x="194" y="-16" type="line"/>
      <point x="240" y="213" type="line"/>
      <point x="362" y="213" type="line"/>
      <point x="318" y="-8" type="line"/>
    </contour>
    <contour>
      <point x="285" y="440" type="line"/>
      <point x="408" y="440" type="line"/>
      <point x="372" y="263" type="line"/>
      <point x="250" y="263" type="line"/>
    </contour>
  </outline>
</glyph>
<glyph name="dollar" format="1">
  <advance width="487"/>
  <unicode hex="0024"/>
  <outline>
    <contour>
      <point x="209" y="-83" type="line"/>
      <point x="256" y="-83" type="line"/>
      <point x="296" y="728" type="line"/>
      <point x="249" y="728" type="line"/>
    </contour>
    <component base="S" xOffset="-6"/>
  </outline>
</glyph>
<glyph name="quotesingle" format="1">
  <advance width="156"/>
  <unicode hex="0027"/>
  <outline>
    <contour>
      <point x="35" y="750" type="line"/>
      <point x="35" y="543" type="line"/>
      <point x="77" y="543" type="line"/>
      <point x="119" y="750" type="line"/>
    </contour>
  </outline>
</glyph>
<glyph name="parenright" format="1">
  <advance width="246"/>
  <unicode hex="0029"/>
  <outline>
    <contour>
      <point x="28" y="707" type="line"/>
      <point x="107.147368421" y="571.0"/>
      <point x="131.0" y="432.0"/>
      <point x="131" y="294" type="curve" smooth="yes"/>
      <point x="131.0" y="154.0"/>
      <point x="106.12244898" y="14.0"/>
      <point x="25" y="-124" type="curve"/>
      <point x="60" y="-141" type="line"/>
      <point x="167" y="2"/>
      <point x="216" y="147"/>
      <point x="216" y="292" type="curve" smooth="yes"/>
      <point x="216" y="436"/>
      <point x="168" y="581"/>
      <point x="62" y="723" type="curve"/>
    </contour>
  </outline>
</glyph>
<glyph name="asterisk" format="1">
  <advance width="375"/>
  <unicode hex="002A"/>
  <outline>
    <contour>
      <point x="115" y="419" type="line"/>
      <point x="187" y="503" type="line"/>
      <point x="260" y="419" type="line"/>
      <point x="290" y="441" type="line"/>
      <point x="234" y="537" type="line"/>
      <point x="335" y="580" type="line"/>
      <point x="323" y="616" type="line"/>
      <point x="216" y="591" type="line"/>
      <point x="207" y="701" type="line"/>
      <point x="168" y="701" type="line"/>
      <point x="158" y="591" type="line"/>
      <point x="51" y="616" type="line"/>
      <point x="40" y="580" type="line"/>
      <point x="141" y="537" type="line"/>
      <point x="85" y="441" type="line"/>
    </contour>
  </outline>
</glyph>
<glyph name="plus" format="1">
  <advance width="552"/>
  <unicode hex="002B"/>
  <outline>
    <contour>
      <point x="50" y="262" type="line"/>
      <point x="249" y="262" type="line"/>
      <point x="249" y="54" type="line"/>
      <point x="302" y="54" type="line"/>
      <point x="302" y="262" type="line"/>
      <point x="502" y="262" type="line"/>
      <point x="502" y="315" type="line"/>
      <point x="302" y="315" type="line"/>
      <point x="302" y="524" type="line"/>
      <point x="249" y="524" type="line"/>
      <point x="249" y="315" type="line"/>
      <point x="50" y="315" type="line"/>
    </contour>
  </outline>
</glyph>
<glyph name="comma" format="1">
  <advance width="247"/>
  <unicode hex="002C"/>
  <outline>
    <contour>
      <point x="98" y="6" type="line" smooth="yes"/>
      <point x="117" y="3"/>
      <point x="130" y="-4"/>
      <point x="130" y="-23" type="curve" smooth="yes"/>
      <point x="130" y="-62"/>
      <point x="94" y="-89"/>
      <point x="60" y="-109" type="curve"/>
      <point x="80" y="-138" type="line"/>
      <point x="151" y="-105"/>
      <point x="197" y="-46"/>
      <point x="197" y="32" type="curve" smooth="yes"/>
      <point x="197" y="78"/>
      <point x="173" y="115"/>
      <point x="127" y="115" type="curve" smooth="yes"/>
      <point x="90" y="115"/>
      <point x="60" y="92"/>
      <point x="60" y="56" type="curve" smooth="yes"/>
      <point x="60" y="39"/>
      <point x="65" y="24"/>
      <point x="72" y="10" type="curve"/>
    </contour>
  </outline>
</glyph>
<glyph name="two" format="1">
  <advance width="500"/>
  <unicode hex="0032"/>
  <outline>
    <contour>
      <point x="32" y="0" type="line"/>
      <point x="432" y="0" type="line"/>
      <point x="469" y="179" type="line"/>
      <point x="431" y="179" type="line"/>
      <point x="391.0" y="108.0" type="line" smooth="yes"/>
      <point x="373" y="77"/>
      <point x="363" y="71"/>
      <point x="327" y="71" type="curve" smooth="yes"/>
      <point x="88.0" y="71.0" type="line"/>
      <point x="94.0" y="48.0" type="line"/>
      <point x="230" y="146" type="line" smooth="yes"/>
      <point x="316" y="208"/>
      <point x="403.0" y="263.0"/>
      <point x="403.0" y="350.0" type="curve" smooth="yes"/>
      <point x="403.0" y="467.0"/>
      <point x="293.0" y="494.0"/>
      <point x="239.0" y="494.0" type="curve" smooth="yes"/>
      <point x="153.0" y="494.0"/>
      <point x="82.0" y="445.0"/>
      <point x="37.0" y="378.0" type="curve"/>
      <point x="62.0" y="346.0" type="line"/>
      <point x="106.0" y="395.0"/>
      <point x="171.0" y="423.0"/>
      <point x="224.0" y="423.0" type="curve" smooth="yes"/>
      <point x="275.0" y="423.0"/>
      <point x="315.0" y="397.0"/>
      <point x="315.0" y="342.0" type="curve" smooth="yes"/>
      <point x="315.0" y="294.0"/>
      <point x="269" y="252"/>
      <point x="202" y="192" type="curve" smooth="yes"/>
      <point x="32.0" y="41.0" type="line"/>
    </contour>
  </outline>
</glyph>
<glyph name="four" format="1">
  <advance width="552"/>
  <unicode hex="0034"/>
  <outline>
    <contour>
      <point x="318" y="-123" type="line"/>
      <point x="400" y="-123" type="line"/>
      <point x="400" y="60" type="line"/>
      <point x="513" y="60" type="line"/>
      <point x="513" y="116" type="line"/>
      <point x="400" y="116" type="line"/>
      <point x="400" y="493" type="line"/>
      <point x="335" y="483" type="line"/>
      <point x="29" y="96" type="line"/>
      <point x="29" y="60" type="line"/>
      <point x="318" y="60" type="line"/>
    </contour>
    <contour>
      <point x="90" y="100" type="line"/>
      <point x="353" y="427" type="line"/>
      <point x="318" y="431" type="line"/>
      <point x="318" y="116" type="line"/>
      <point x="75" y="116" type="line"/>
    </contour>
  </outline>
</glyph>
<glyph name="six" format="1">
  <advance width="518"/>
  <unicode hex="0036"/>
  <outline>
    <contour>
      <point x="250" y="-9" type="curve" smooth="yes"/>
      <point x="371" y="-9"/>
      <point x="461" y="70"/>
      <point x="461" y="191" type="curve" smooth="yes"/>
      <point x="461" y="292"/>
      <point x="397" y="362"/>
      <point x="296" y="362" type="curve" smooth="yes"/>
      <point x="241" y="362"/>
      <point x="183" y="338"/>
      <point x="142" y="302" type="curve" smooth="yes"/>
      <point x="118" y="280" type="line"/>
      <point x="124" y="249" type="line"/>
      <point x="159" y="274" type="line" smooth="yes"/>
      <point x="187" y="294"/>
      <point x="233" y="310"/>
      <point x="268" y="310" type="curve" smooth="yes"/>
      <point x="342" y="310"/>
      <point x="378" y="256"/>
      <point x="378" y="182" type="curve" smooth="yes"/>
      <point x="378" y="107"/>
      <point x="337" y="46"/>
      <point x="262" y="46" type="curve" smooth="yes"/>
      <point x="160" y="46"/>
      <point x="127" y="174"/>
      <point x="127" y="246" type="curve" smooth="yes"/>
      <point x="127" y="409"/>
      <point x="232" y="538"/>
      <point x="395" y="538" type="curve" smooth="yes"/>
      <point x="418" y="538"/>
      <point x="441" y="536"/>
      <point x="464" y="533" type="curve"/>
      <point x="464" y="579" type="line"/>
      <point x="433" y="589"/>
      <point x="401" y="594"/>
      <point x="369" y="594" type="curve" smooth="yes"/>
      <point x="167" y="594"/>
      <point x="39" y="432"/>
      <point x="39" y="259" type="curve" smooth="yes"/>
      <point x="39" y="90"/>
      <point x="134" y="-9"/>
    </contour>
  </outline>
</glyph>
<glyph name="nine" format="1">
  <advance width="518"/>
  <unicode hex="0039"/>
  <outline>
    <contour>
      <point x="263" y="504" type="curve" smooth="yes"/>
      <point x="142" y="504"/>
      <point x="52" y="425"/>
      <point x="52" y="304" type="curve" smooth="yes"/>
      <point x="52" y="203"/>
      <point x="126" y="123"/>
      <point x="227" y="123" type="curve" smooth="yes"/>
      <point x="282" y="123"/>
      <point x="337" y="142"/>
      <point x="384" y="202" type="curve" smooth="yes"/>
      <point x="395" y="215" type="line"/>
      <point x="389" y="246" type="line"/>
      <point x="369" y="227" type="line" smooth="yes"/>
      <point x="329" y="190"/>
      <point x="290" y="175"/>
      <point x="255" y="175" type="curve" smooth="yes"/>
      <point x="181" y="175"/>
      <point x="135" y="239"/>
      <point x="135" y="313" type="curve" smooth="yes"/>
      <point x="135" y="388"/>
      <point x="176" y="449"/>
      <point x="251" y="449" type="curve" smooth="yes"/>
      <point x="353" y="449"/>
      <point x="386" y="341"/>
      <point x="386" y="249" type="curve" smooth="yes"/>
      <point x="386" y="86"/>
      <point x="281" y="-43"/>
      <point x="118" y="-43" type="curve" smooth="yes"/>
      <point x="95" y="-43"/>
      <point x="72" y="-41"/>
      <point x="49" y="-38" type="curve"/>
      <point x="49" y="-84" type="line"/>
      <point x="80" y="-94"/>
      <point x="112" y="-99"/>
      <point x="144" y="-99" type="curve" smooth="yes"/>
      <point x="346" y="-99"/>
      <point x="474" y="63"/>
      <point x="474" y="236" type="curve" smooth="yes"/>
      <point x="474" y="425"/>
      <point x="379" y="504"/>
    </contour>
  </outline>
</glyph>
<glyph name="equal" format="1">
  <advance width="552"/>
  <unicode hex="003D"/>
  <outline>
    <contour>
      <point x="50" y="366" type="line"/>
      <point x="502" y="366" type="line"/>
      <point x="502" y="420" type="line"/>
      <point x="50" y="420" type="line"/>
    </contour>
    <contour>
      <point x="50" y="161" type="line"/>
      <point x="502" y="161" type="line"/>
      <point x="502" y="215" type="line"/>
      <point x="50" y="215" type="line"/>
    </contour>
  </outline>
</glyph>
<glyph name="B" format="1">
  <advance width="610"/>
  <unicode hex="0042"/>
  <outline>
    <contour>
      <point x="314" y="-2" type="line" smooth="yes"/>
      <point x="478" y="-3"/>
      <point x="570" y="72"/>
      <point x="570" y="183" type="curve" smooth="yes"/>
      <point x="570" y="269"/>
      <point x="518" y="336"/>
      <point x="385" y="357" type="curve"/>
      <point x="385" y="339" type="line"/>
      <point x="485" y="384"/>
      <point x="517" y="426"/>
      <point x="517" y="498" type="curve" smooth="yes"/>
      <point x="517" y="586"/>
      <point x="451" y="646"/>
      <point x="327" y="645" type="curve" smooth="yes"/>
      <point x="26" y="642" type="line"/>
      <point x="26" y="591" type="line"/>
      <point x="164" y="578" type="line"/>
      <point x="134" y="621" type="line"/>
      <point x="134" y="18" type="line"/>
      <point x="155" y="64" type="line"/>
      <point x="26" y="51" type="line"/>
      <point x="26" y="0" type="line"/>
    </contour>
    <contour>
      <point x="282" y="46" type="curve" smooth="yes"/>
      <point x="227" y="48"/>
      <point x="220" y="58"/>
      <point x="220" y="85" type="curve" smooth="yes"/>
      <point x="220" y="315" type="line"/>
      <point x="292" y="315" type="line" smooth="yes"/>
      <point x="422" y="315"/>
      <point x="472" y="260"/>
      <point x="472" y="182" type="curve" smooth="yes"/>
      <point x="472" y="94"/>
      <point x="413" y="42"/>
    </contour>
    <contour>
      <point x="220" y="365" type="line"/>
      <point x="220" y="595" type="line"/>
      <point x="288" y="597" type="line" smooth="yes"/>
      <point x="389" y="600"/>
      <point x="423" y="550"/>
      <point x="423" y="488" type="curve" smooth="yes"/>
      <point x="423" y="410"/>
      <point x="370" y="357"/>
      <point x="292" y="361" type="curve" smooth="yes"/>
    </contour>
  </outline>
</glyph>
<glyph name="C" format="1">
  <advance width="616"/>
  <unicode hex="0043"/>
  <outline>
    <contour>
      <point x="351" y="-15" type="curve" smooth="yes"/>
      <point x="444" y="-15"/>
      <point x="507" y="3"/>
      <point x="562" y="24" type="curve"/>
      <point x="606" y="222" type="line"/>
      <point x="567" y="222" type="line"/>
      <point x="496" y="95" type="line" smooth="yes"/>
      <point x="477" y="61"/>
      <point x="431" y="42"/>
      <point x="364" y="42" type="curve" smooth="yes"/>
      <point x="239" y="42"/>
      <point x="146" y="147"/>
      <point x="146" y="314" type="curve" smooth="yes"/>
      <point x="146" y="489"/>
      <point x="213" y="604"/>
      <point x="384" y="604" type="curve" smooth="yes"/>
      <point x="423" y="604"/>
      <point x="465" y="598"/>
      <point x="520" y="576" type="curve"/>
      <point x="487" y="617" type="line"/>
      <point x="549" y="439" type="line"/>
      <point x="598" y="439" type="line"/>
      <point x="577" y="648" type="line"/>
      <point x="516" y="637" type="line"/>
      <point x="475" y="649"/>
      <point x="430" y="655"/>
      <point x="385" y="655" type="curve" smooth="yes"/>
      <point x="218" y="655"/>
      <point x="46" y="531"/>
      <point x="46" y="312" type="curve" smooth="yes"/>
      <point x="46" y="107"/>
      <point x="170" y="-15"/>
    </contour>
    <contour>
      <point x="379.0" y="642.0" type="move" name="topuc"/>
    </contour>
    <contour>
      <point x="351.0" y="0.0" type="move" name="bottom"/>
    </contour>
  </outline>
</glyph>
<glyph name="G" format="1">
  <advance width="672"/>
  <unicode hex="0047"/>
  <outline>
    <contour>
      <point x="388" y="-15" type="curve" smooth="yes"/>
      <point x="473" y="-15"/>
      <point x="578" y="9"/>
      <point x="633" y="41" type="curve"/>
      <point x="576" y="87" type="line"/>
      <point x="580" y="266" type="line"/>
      <point x="652" y="276" type="line"/>
      <point x="652" y="323" type="line"/>
      <point x="385" y="323" type="line"/>
      <point x="385" y="276" type="line"/>
      <point x="494" y="266" type="line"/>
      <point x="502" y="19" type="line"/>
      <point x="531" y="61" type="line"/>
      <point x="481" y="49"/>
      <point x="436" y="42"/>
      <point x="396" y="42" type="curve" smooth="yes"/>
      <point x="239" y="42"/>
      <point x="147" y="147"/>
      <point x="147" y="314" type="curve" smooth="yes"/>
      <point x="147" y="503"/>
      <point x="225" y="604"/>
      <point x="384" y="604" type="curve" smooth="yes"/>
      <point x="429" y="604"/>
      <point x="472" y="595"/>
      <point x="520" y="576" type="curve"/>
      <point x="487" y="617" type="line"/>
      <point x="549" y="439" type="line"/>
      <point x="598" y="439" type="line"/>
      <point x="577" y="648" type="line"/>
      <point x="516" y="637" type="line"/>
      <point x="476" y="649"/>
      <point x="431" y="655"/>
      <point x="385" y="655" type="curve" smooth="yes"/>
      <point x="193" y="655"/>
      <point x="46" y="506"/>
      <point x="46" y="312" type="curve" smooth="yes"/>
      <point x="46" y="99"/>
      <point x="165" y="-15"/>
    </contour>
    <contour>
      <point x="385.0" y="642.0" type="move" name="topuc"/>
    </contour>
    <contour>
      <point x="388.0" y="0.0" type="move" name="bottom"/>
    </contour>
  </outline>
</glyph>
<glyph name="H" format="1">
  <advance width="781"/>
  <unicode hex="0048"/>
  <outline>
    <contour>
      <point x="26" y="0" type="line"/>
      <point x="329" y="0" type="line"/>
      <point x="329" y="51" type="line"/>
      <point x="190" y="64" type="line"/>
      <point x="220" y="31" type="line"/>
      <point x="220" y="335" type="line"/>
      <point x="190" y="305" type="line"/>
      <point x="590" y="305" type="line"/>
      <point x="560" y="335" type="line"/>
      <point x="560" y="31" type="line"/>
      <point x="590" y="64" type="line"/>
      <point x="452" y="51" type="line"/>
      <point x="452" y="0" type="line"/>
      <point x="755" y="0" type="line"/>
      <point x="755" y="51" type="line"/>
      <point x="616" y="64" type="line"/>
      <point x="646" y="31" type="line"/>
      <point x="646" y="611" type="line"/>
      <point x="616" y="578" type="line"/>
      <point x="755" y="591" type="line"/>
      <point x="755" y="642" type="line"/>
      <point x="452" y="642" type="line"/>
      <point x="452" y="591" type="line"/>
      <point x="590" y="578" type="line"/>
      <point x="560" y="611" type="line"/>
      <point x="560" y="325" type="line"/>
      <point x="590" y="355" type="line"/>
      <point x="190" y="355" type="line"/>
      <point x="220" y="325" type="line"/>
      <point x="220" y="611" type="line"/>
      <point x="190" y="578" type="line"/>
      <point x="329" y="591" type="line"/>
      <point x="329" y="642" type="line"/>
      <point x="26" y="642" type="line"/>
      <point x="26" y="591" type="line"/>
      <point x="164" y="578" type="line"/>
      <point x="134" y="611" type="line" name="_p_cornerRadius:17.0"/>
      <point x="134" y="31" type="line"/>
      <point x="164" y="64" type="line"/>
      <point x="26" y="51" type="line"/>
    </contour>
    <contour>
      <point x="390.0" y="642.0" type="move" name="topuc"/>
    </contour>
  </outline>
</glyph>
<glyph name="J" format="1">
  <advance width="340"/>
  <unicode hex="004A"/>
  <outline>
    <contour>
      <point x="16" y="-146" type="line"/>
      <point x="80" y="-131" type="line" smooth="yes"/>
      <point x="180" y="-108"/>
      <point x="220.0" y="-67.0"/>
      <point x="220.0" y="89.0" type="curve" smooth="yes"/>
      <point x="220.0" y="611.0" type="line"/>
      <point x="190.0" y="578.0" type="line"/>
      <point x="329" y="591" type="line"/>
      <point x="329" y="642" type="line"/>
      <point x="26" y="642" type="line"/>
      <point x="26" y="591" type="line"/>
      <point x="164.0" y="578.0" type="line"/>
      <point x="134.0" y="611.0" type="line"/>
      <point x="134.0" y="73.0" type="line" smooth="yes"/>
      <point x="134.0" y="-31.0"/>
      <point x="121" y="-45"/>
      <point x="60" y="-77" type="curve" smooth="yes"/>
      <point x="7.0" y="-105.0" type="line"/>
    </contour>
    <contour>
      <point x="177.0" y="642.0" type="move" name="topuc"/>
    </contour>
  </outline>
</glyph>
<glyph name="K" format="1">
  <advance width="649"/>
  <unicode hex="004B"/>
  <outline>
    <contour>
      <point x="391" y="0" type="line"/>
      <point x="669" y="0" type="line"/>
      <point x="669" y="51" type="line"/>
      <point x="549" y="65" type="line"/>
      <point x="598" y="38" type="line"/>
      <point x="327" y="375" type="line"/>
      <point x="325" y="330" type="line"/>
      <point x="578" y="603" type="line"/>
      <point x="527" y="577" type="line"/>
      <point x="649" y="591" type="line"/>
      <point x="649" y="642" type="line"/>
      <point x="382" y="642" type="line"/>
      <point x="382" y="591" type="line"/>
      <point x="498" y="578" type="line"/>
      <point x="488" y="604" type="line"/>
      <point x="288" y="364" type="line"/>
      <point x="173" y="354" type="line"/>
      <point x="173" y="305" type="line"/>
      <point x="277" y="305" type="line"/>
      <point x="489" y="38" type="line"/>
      <point x="500" y="65" type="line"/>
      <point x="391" y="51" type="line"/>
    </contour>
    <contour>
      <point x="26" y="0" type="line"/>
      <point x="309" y="0" type="line"/>
      <point x="309" y="51" type="line"/>
      <point x="190" y="64" type="line"/>
      <point x="220" y="31" type="line"/>
      <point x="220" y="611" type="line"/>
      <point x="190" y="578" type="line"/>
      <point x="309" y="591" type="line"/>
      <point x="309" y="642" type="line"/>
      <point x="26" y="642" type="line"/>
      <point x="26" y="591" type="line"/>
      <point x="164" y="578" type="line"/>
      <point x="134" y="611" type="line"/>
      <point x="134" y="31" type="line"/>
      <point x="164" y="64" type="line"/>
      <point x="26" y="51" type="line"/>
    </contour>
    <contour>
      <point x="352.0" y="642.0" type="move" name="topuc"/>
    </contour>
    <contour>
      <point x="352.0" y="0.0" type="move" name="bottom"/>
    </contour>
  </outline>
</glyph>
<glyph name="L" format="1">
  <advance width="559"/>
  <unicode hex="004C"/>
  <outline>
    <contour>
      <point x="26" y="0" type="line"/>
      <point x="500" y="0" type="line"/>
      <point x="544" y="212" type="line"/>
      <point x="495" y="212" type="line"/>
      <point x="452" y="122" type="line" smooth="yes"/>
      <point x="428" y="70"/>
      <point x="417" y="60"/>
      <point x="369" y="57" type="curve" smooth="yes"/>
      <point x="283" y="52" type="line" smooth="yes"/>
      <point x="229" y="49"/>
      <point x="220" y="62"/>
      <point x="220" y="110" type="curve" smooth="yes"/>
      <point x="220" y="611" type="line"/>
      <point x="190" y="578" type="line"/>
      <point x="329" y="591" type="line"/>
      <point x="329" y="642" type="line"/>
      <point x="26" y="642" type="line"/>
      <point x="26" y="591" type="line"/>
      <point x="164" y="578" type="line"/>
      <point x="134" y="611" type="line"/>
      <point x="134" y="21" type="line"/>
      <point x="164" y="64" type="line"/>
      <point x="26" y="51" type="line"/>
    </contour>
    <contour>
      <point x="355.0" y="642.0" type="move" name="right"/>
    </contour>
    <contour>
      <point x="177.0" y="642.0" type="move" name="topuc"/>
    </contour>
    <contour>
      <point x="279.0" y="0.0" type="move" name="bottom"/>
    </contour>
  </outline>
</glyph>
<glyph name="M" format="1">
  <advance width="895"/>
  <unicode hex="004D"/>
  <outline>
    <contour>
      <point x="6" y="0" type="line"/>
      <point x="291" y="0" type="line"/>
      <point x="291" y="51" type="line"/>
      <point x="150" y="64" type="line"/>
      <point x="179" y="27" type="line"/>
      <point x="200" y="570" type="line"/>
      <point x="188" y="568" type="line"/>
      <point x="422" y="-10" type="line"/>
      <point x="441" y="-10" type="line"/>
      <point x="661" y="573" type="line"/>
      <point x="648" y="575" type="line"/>
      <point x="676" y="27" type="line"/>
      <point x="704" y="60" type="line"/>
      <point x="566" y="51" type="line"/>
      <point x="566" y="0" type="line"/>
      <point x="869" y="0" type="line"/>
      <point x="869" y="51" type="line"/>
      <point x="731" y="60" type="line"/>
      <point x="763" y="27" type="line"/>
      <point x="728" y="615" type="line"/>
      <point x="700" y="581" type="line"/>
      <point x="845" y="591" type="line"/>
      <point x="845" y="642" type="line"/>
      <point x="628" y="642" type="line"/>
      <point x="440" y="119" type="line"/>
      <point x="461" y="119" type="line"/>
      <point x="257" y="642" type="line"/>
      <point x="30" y="642" type="line"/>
      <point x="30" y="591" type="line"/>
      <point x="176" y="578" type="line"/>
      <point x="148" y="615" type="line"/>
      <point x="111" y="27" type="line"/>
      <point x="143" y="65" type="line"/>
      <point x="6" y="51" type="line"/>
    </contour>
  </outline>
</glyph>
<glyph name="O" format="1">
  <advance width="709"/>
  <unicode hex="004F"/>
  <outline>
    <contour>
      <point x="370" y="654" type="curve" smooth="yes"/>
      <point x="174" y="654"/>
      <point x="46" y="509"/>
      <point x="46" y="313" type="curve" smooth="yes"/>
      <point x="46" y="129"/>
      <point x="155" y="-15"/>
      <point x="339" y="-15" type="curve" smooth="yes"/>
      <point x="536" y="-15"/>
      <point x="663" y="130"/>
      <point x="663" y="327" type="curve" smooth="yes"/>
      <point x="663" y="511"/>
      <point x="554" y="654"/>
    </contour>
    <contour>
      <point x="359" y="45" type="curve" smooth="yes"/>
      <point x="208" y="45"/>
      <point x="146" y="173"/>
      <point x="146" y="313" type="curve" smooth="yes"/>
      <point x="146" y="460"/>
      <point x="185" y="595"/>
      <point x="350" y="595" type="curve" smooth="yes"/>
      <point x="502" y="595"/>
      <point x="562" y="467"/>
      <point x="562" y="326" type="curve" smooth="yes"/>
      <point x="562" y="179"/>
      <point x="523" y="45"/>
    </contour>
    <contour>
      <point x="354.0" y="642.0" type="move" name="topuc"/>
    </contour>
    <contour>
      <point x="354.0" y="0.0" type="move" name="bottom"/>
    </contour>
    <contour>
      <point x="380.0" y="0.0" type="move" name="ogonek"/>
    </contour>
  </outline>
</glyph>
<glyph name="P" format="1">
  <advance width="569"/>
  <unicode hex="0050"/>
  <outline>
    <contour>
      <point x="26" y="0" type="line"/>
      <point x="359" y="0" type="line"/>
      <point x="359" y="51" type="line"/>
      <point x="190" y="64" type="line"/>
      <point x="220" y="27" type="line"/>
      <point x="220" y="595" type="line"/>
      <point x="283" y="595" type="line" smooth="yes"/>
      <point x="379" y="595"/>
      <point x="440" y="521"/>
      <point x="440" y="436" type="curve" smooth="yes"/>
      <point x="440" y="329"/>
      <point x="354" y="286"/>
      <point x="259" y="302" type="curve"/>
      <point x="259" y="262" type="line"/>
      <point x="403" y="224"/>
      <point x="535" y="306"/>
      <point x="535" y="447" type="curve" smooth="yes"/>
      <point x="535" y="590"/>
      <point x="415" y="642"/>
      <point x="280" y="642" type="curve" smooth="yes"/>
      <point x="26" y="642" type="line"/>
      <point x="26" y="591" type="line"/>
      <point x="164" y="578" type="line"/>
      <point x="134" y="615" type="line"/>
      <point x="134" y="27" type="line"/>
      <point x="164" y="64" type="line"/>
      <point x="26" y="51" type="line"/>
    </contour>
  </outline>
</glyph>
<glyph name="V" format="1">
  <advance width="677"/>
  <unicode hex="0056"/>
  <outline>
    <contour>
      <point x="310" y="-14" type="line"/>
      <point x="368" y="-14" type="line"/>
      <point x="620" y="613" type="line"/>
      <point x="579" y="577" type="line"/>
      <point x="687" y="591" type="line"/>
      <point x="687" y="642" type="line"/>
      <point x="411" y="642" type="line"/>
      <point x="411" y="591" type="line"/>
      <point x="557" y="578" type="line"/>
      <point x="536" y="613" type="line"/>
      <point x="350" y="57" type="line"/>
      <point x="373" y="57" type="line"/>
      <point x="159" y="613" type="line"/>
      <point x="139" y="578" type="line"/>
      <point x="293" y="591" type="line"/>
      <point x="293" y="642" type="line"/>
      <point x="-10" y="642" type="line"/>
      <point x="-10" y="591" type="line"/>
      <point x="100" y="577" type="line"/>
      <point x="59" y="613" type="line"/>
    </contour>
  </outline>
</glyph>
<glyph name="X" format="1">
  <advance width="658"/>
  <unicode hex="0058"/>
  <outline>
    <contour>
      <point x="5" y="0" type="line"/>
      <point x="274" y="0" type="line"/>
      <point x="274" y="51" type="line"/>
      <point x="142" y="62" type="line"/>
      <point x="155" y="32" type="line"/>
      <point x="333" y="293" type="line"/>
      <point x="299" y="293" type="line"/>
      <point x="475" y="32" type="line"/>
      <point x="488" y="62" type="line"/>
      <point x="385" y="51" type="line"/>
      <point x="385" y="0" type="line"/>
      <point x="651" y="0" type="line"/>
      <point x="651" y="51" type="line"/>
      <point x="536" y="62" type="line"/>
      <point x="583" y="32" type="line"/>
      <point x="359" y="369" type="line"/>
      <point x="357" y="320" type="line"/>
      <point x="585" y="609" type="line"/>
      <point x="536" y="577" type="line"/>
      <point x="636" y="591" type="line"/>
      <point x="636" y="642" type="line"/>
      <point x="399" y="642" type="line"/>
      <point x="399" y="591" type="line"/>
      <point x="508" y="577" type="line"/>
      <point x="495" y="610" type="line"/>
      <point x="330" y="362" type="line"/>
      <point x="364" y="362" type="line"/>
      <point x="199" y="610" type="line"/>
      <point x="186" y="578" type="line"/>
      <point x="308" y="591" type="line"/>
      <point x="308" y="642" type="line"/>
      <point x="29" y="642" type="line"/>
      <point x="29" y="591" type="line"/>
      <point x="133" y="577" type="line"/>
      <point x="86" y="610" type="line"/>
      <point x="304" y="286" type="line"/>
      <point x="306" y="334" type="line"/>
      <point x="64" y="34" type="line"/>
      <point x="113" y="63" type="line"/>
      <point x="5" y="51" type="line"/>
    </contour>
  </outline>
</glyph>
<glyph name="bracketleft" format="1">
  <advance width="219"/>
  <unicode hex="005B"/>
  <outline>
    <contour>
      <point x="96" y="-99" type="line"/>
      <point x="96" y="684" type="line"/>
      <point x="199" y="700" type="line"/>
      <point x="199" y="725" type="line"/>
      <point x="20" y="725" type="line"/>
      <point x="20" y="-140" type="line"/>
      <point x="199" y="-140" type="line"/>
      <point x="199" y="-115" type="line"/>
    </contour>
  </outline>
</glyph>
<glyph name="bracketright" format="1">
  <advance width="219"/>
  <unicode hex="005D"/>
  <outline>
    <contour>
      <point x="20" y="-115" type="line"/>
      <point x="20" y="-140" type="line"/>
      <point x="199" y="-140" type="line"/>
      <point x="199" y="725" type="line"/>
      <point x="20" y="725" type="line"/>
      <point x="20" y="700" type="line"/>
      <point x="123" y="684" type="line"/>
      <point x="123" y="-99" type="line"/>
    </contour>
  </outline>
</glyph>
<glyph name="underscore" format="1">
  <advance width="410"/>
  <unicode hex="005F"/>
  <outline>
    <contour>
      <point x="0" y="-80" type="line"/>
      <point x="410" y="-80" type="line"/>
      <point x="410" y="-35" type="line"/>
      <point x="0" y="-35" type="line"/>
    </contour>
  </outline>
</glyph>
<glyph name="a" format="1">
  <advance width="500"/>
  <unicode hex="0061"/>
  <outline>
    <contour>
      <point x="317" y="253" type="line"/>
      <point x="171" y="229" type="line" smooth="yes"/>
      <point x="92" y="216"/>
      <point x="44" y="168"/>
      <point x="44" y="102" type="curve" smooth="yes"/>
      <point x="44" y="38"/>
      <point x="91" y="-7"/>
      <point x="156" y="-7" type="curve" smooth="yes"/>
      <point x="201" y="-7"/>
      <point x="242" y="19"/>
      <point x="285" y="75" type="curve"/>
      <point x="287" y="75" type="line"/>
      <point x="297" y="18"/>
      <point x="321" y="-7"/>
      <point x="368" y="-7" type="curve" smooth="yes"/>
      <point x="405" y="-7"/>
      <point x="439" y="10"/>
      <point x="460" y="39" type="curve"/>
      <point x="455" y="64" type="line"/>
      <point x="428" y="54"/>
      <point x="415" y="51"/>
      <point x="400" y="51" type="curve" smooth="yes"/>
      <point x="380" y="51"/>
      <point x="367" y="67"/>
      <point x="367" y="91" type="curve" smooth="yes"/>
      <point x="367" y="314" type="line" smooth="yes"/>
      <point x="367" y="406"/>
      <point x="315" y="455"/>
      <point x="219" y="455" type="curve" smooth="yes"/>
      <point x="171" y="455"/>
      <point x="105" y="438"/>
      <point x="57" y="414" type="curve"/>
      <point x="57" y="356" type="line"/>
      <point x="111" y="373"/>
      <point x="167" y="383"/>
      <point x="207" y="383" type="curve" smooth="yes"/>
      <point x="264" y="383"/>
      <point x="287" y="360"/>
      <point x="287" y="301" type="curve" smooth="yes"/>
      <point x="287" y="113" type="line"/>
      <point x="257" y="83"/>
      <point x="214" y="61"/>
      <point x="184" y="61" type="curve" smooth="yes"/>
      <point x="147" y="61"/>
      <point x="124" y="81"/>
      <point x="124" y="113" type="curve" smooth="yes"/>
      <point x="124" y="150"/>
      <point x="150" y="176"/>
      <point x="194" y="183" type="curve" smooth="yes"/>
      <point x="317" y="204" type="line"/>
    </contour>
    <contour>
      <point x="218" y="444" type="move" name="toplc"/>
    </contour>
    <contour>
      <point x="368" y="0" type="move" name="ogonek"/>
    </contour>
    <contour>
      <point x="231" y="0" type="move" name="bottom"/>
    </contour>
  </outline>
</glyph>
<glyph name="b" format="1">
  <advance width="518"/>
  <unicode hex="0062"/>
  <outline>
    <contour>
      <point x="92" y="26" type="line"/>
      <point x="154" y="-1"/>
      <point x="201" y="-7"/>
      <point x="243" y="-7" type="curve" smooth="yes"/>
      <point x="387" y="-7"/>
      <point x="483" y="95"/>
      <point x="483" y="248" type="curve" smooth="yes"/>
      <point x="483" y="359"/>
      <point x="422" y="453"/>
      <point x="311" y="453" type="curve" smooth="yes"/>
      <point x="269" y="453"/>
      <point x="232" y="436"/>
      <point x="187" y="395" type="curve" smooth="yes"/>
      <point x="154" y="365" type="line"/>
      <point x="162" y="337" type="line"/>
      <point x="187" y="356" type="line" smooth="yes"/>
      <point x="226" y="385"/>
      <point x="247" y="392"/>
      <point x="278" y="393" type="curve" smooth="yes"/>
      <point x="362" y="396"/>
      <point x="400" y="320"/>
      <point x="400" y="236" type="curve" smooth="yes"/>
      <point x="400" y="116"/>
      <point x="341" y="45"/>
      <point x="246" y="45" type="curve" smooth="yes"/>
      <point x="217" y="45"/>
      <point x="179" y="51"/>
      <point x="156" y="75" type="curve"/>
      <point x="172" y="43" type="line"/>
      <point x="172" y="589" type="line"/>
      <point x="182" y="664" type="line"/>
      <point x="10" y="638" type="line"/>
      <point x="10" y="605" type="line"/>
      <point x="102" y="581" type="line"/>
      <point x="92" y="603" type="line"/>
    </contour>
  </outline>
</glyph>
<glyph name="c" format="1">
  <advance width="433"/>
  <unicode hex="0063"/>
  <outline>
    <contour>
      <point x="235" y="-14" type="curve" smooth="yes"/>
      <point x="304" y="-14"/>
      <point x="358" y="25"/>
      <point x="405" y="107" type="curve"/>
      <point x="380" y="129" type="line"/>
      <point x="338" y="82"/>
      <point x="300" y="62"/>
      <point x="255" y="62" type="curve" smooth="yes"/>
      <point x="171" y="62"/>
      <point x="115" y="129"/>
      <point x="115" y="231" type="curve" smooth="yes"/>
      <point x="115" y="326"/>
      <point x="167" y="392"/>
      <point x="241" y="392" type="curve" smooth="yes"/>
      <point x="263" y="392"/>
      <point x="284" y="384"/>
      <point x="308" y="367" type="curve" smooth="yes"/>
      <point x="364" y="328" type="line"/>
      <point x="382" y="348"/>
      <point x="390" y="369"/>
      <point x="390" y="387" type="curve" smooth="yes"/>
      <point x="390" y="427"/>
      <point x="351" y="457"/>
      <point x="285" y="457" type="curve" smooth="yes"/>
      <point x="137" y="457"/>
      <point x="38" y="358"/>
      <point x="38" y="210" type="curve" smooth="yes"/>
      <point x="38" y="73"/>
      <point x="115" y="-14"/>
    </contour>
    <contour>
      <point x="241" y="444" type="move" name="toplc"/>
    </contour>
    <contour>
      <point x="257" y="0" type="move" name="bottom"/>
    </contour>
  </outline>
</glyph>
<glyph name="e" format="1">
  <advance width="443"/>
  <unicode hex="0065"/>
  <outline>
    <contour>
      <point x="229" y="-10" type="curve" smooth="yes"/>
      <point x="308" y="-10"/>
      <point x="369" y="39"/>
      <point x="405" y="111" type="curve"/>
      <point x="380" y="133" type="line"/>
      <point x="349" y="91"/>
      <point x="305" y="64"/>
      <point x="254" y="64" type="curve" smooth="yes"/>
      <point x="165" y="64"/>
      <point x="116" y="130"/>
      <point x="116" y="245" type="curve" smooth="yes"/>
      <point x="116" y="333"/>
      <point x="164" y="399"/>
      <point x="234" y="399" type="curve" smooth="yes"/>
      <point x="285" y="399"/>
      <point x="330" y="361"/>
      <point x="323" y="270" type="curve"/>
      <point x="105" y="263" type="line"/>
      <point x="105" y="218" type="line"/>
      <point x="399" y="220" type="line"/>
      <point x="414" y="384"/>
      <point x="345" y="455"/>
      <point x="239" y="455" type="curve" smooth="yes"/>
      <point x="115" y="455"/>
      <point x="38" y="336"/>
      <point x="38" y="206" type="curve" smooth="yes"/>
      <point x="38" y="84"/>
      <point x="113" y="-10"/>
    </contour>
    <contour>
      <point x="236.0" y="444.0" type="move" name="toplc"/>
    </contour>
    <contour>
      <point x="284.0" y="0.0" type="move" name="ogonek"/>
    </contour>
    <contour>
      <point x="221.0" y="0.0" type="move" name="bottom"/>
    </contour>
  </outline>
</glyph>
<glyph name="f" format="1">
  <advance width="313"/>
  <unicode hex="0066"/>
  <outline>
    <contour>
      <point x="25" y="0" type="line"/>
      <point x="275" y="0" type="line"/>
      <point x="275" y="44" type="line"/>
      <point x="147" y="53" type="line"/>
      <point x="177" y="21" type="line"/>
      <point x="177" y="385" type="line"/>
      <point x="304" y="385" type="line"/>
      <point x="304" y="444" type="line"/>
      <point x="177" y="444" type="line"/>
      <point x="177" y="498" type="line" smooth="yes"/>
      <point x="177" y="596"/>
      <point x="211" y="621"/>
      <point x="278" y="598" type="curve" smooth="yes"/>
      <point x="354" y="572" type="line"/>
      <point x="378" y="617"/>
      <point x="369" y="666"/>
      <point x="294" y="666" type="curve" smooth="yes"/>
      <point x="186" y="666"/>
      <point x="115" y="595"/>
      <point x="103" y="482" type="curve" smooth="yes"/>
      <point x="99" y="444" type="line"/>
      <point x="19" y="434" type="line"/>
      <point x="19" y="385" type="line"/>
      <point x="97" y="385" type="line"/>
      <point x="97" y="21" type="line"/>
      <point x="127" y="55" type="line"/>
      <point x="25" y="41" type="line"/>
    </contour>
  </outline>
</glyph>
<glyph name="h" format="1">
  <advance width="558"/>
  <unicode hex="0068"/>
  <outline>
    <contour>
      <point x="25" y="0" type="line"/>
      <point x="249" y="0" type="line"/>
      <point x="249" y="41" type="line"/>
      <point x="147" y="55" type="line"/>
      <point x="177" y="21" type="line"/>
      <point x="177" y="327" type="line"/>
      <point x="217" y="357" type="line" smooth="yes"/>
      <point x="243" y="376"/>
      <point x="271" y="383"/>
      <point x="299" y="383" type="curve" smooth="yes"/>
      <point x="348" y="383"/>
      <point x="382" y="349"/>
      <point x="382" y="299" type="curve" smooth="yes"/>
      <point x="382" y="22" type="line"/>
      <point x="412" y="56" type="line"/>
      <point x="309" y="42" type="line"/>
      <point x="309" y="0" type="line"/>
      <point x="533" y="0" type="line"/>
      <point x="533" y="42" type="line"/>
      <point x="432" y="56" type="line"/>
      <point x="462" y="22" type="line"/>
      <point x="462" y="324" type="line" smooth="yes"/>
      <point x="462.0" y="412.0"/>
      <point x="420.0" y="455.0"/>
      <point x="336" y="455" type="curve" smooth="yes"/>
      <point x="291.69354838709677" y="455.0"/>
      <point x="250" y="440"/>
      <point x="202" y="396" type="curve" smooth="yes"/>
      <point x="169" y="366" type="line"/>
      <point x="177" y="356" type="line"/>
      <point x="177" y="589" type="line"/>
      <point x="187" y="664" type="line"/>
      <point x="25" y="638" type="line"/>
      <point x="25" y="605" type="line"/>
      <point x="107" y="581" type="line"/>
      <point x="97" y="603" type="line"/>
      <point x="97" y="21" type="line"/>
      <point x="127" y="55" type="line"/>
      <point x="25" y="41" type="line"/>
    </contour>
  </outline>
</glyph>
<glyph name="j" format="1">
  <advance width="264"/>
  <unicode hex="006A"/>
  <outline>
    <contour>
      <point x="-9" y="-220" type="line"/>
      <point x="69" y="-195" type="line" smooth="yes"/>
      <point x="150" y="-169"/>
      <point x="177" y="-134"/>
      <point x="177" y="-47" type="curve" smooth="yes"/>
      <point x="177.0" y="380.0" type="line"/>
      <point x="187.0" y="455.0" type="line"/>
      <point x="25.0" y="444.0" type="line"/>
      <point x="25.0" y="411.0" type="line"/>
      <point x="107.0" y="372.0" type="line"/>
      <point x="97.0" y="394.0" type="line"/>
      <point x="97" y="-9" type="line" smooth="yes"/>
      <point x="97" y="-113"/>
      <point x="89" y="-119"/>
      <point x="33" y="-149" type="curve" smooth="yes"/>
      <point x="-20" y="-177" type="line"/>
    </contour>
    <contour>
      <point x="126" y="538" type="curve" smooth="yes"/>
      <point x="158" y="538"/>
      <point x="181" y="561"/>
      <point x="181" y="593" type="curve" smooth="yes"/>
      <point x="181" y="625"/>
      <point x="158" y="647"/>
      <point x="126" y="647" type="curve" smooth="yes"/>
      <point x="94" y="647"/>
      <point x="72" y="625"/>
      <point x="72" y="593" type="curve" smooth="yes"/>
      <point x="72" y="561"/>
      <point x="94" y="538"/>
    </contour>
  </outline>
</glyph>
<glyph name="l" format="1">
  <advance width="284"/>
  <unicode hex="006C"/>
  <outline>
    <contour>
      <point x="35" y="0" type="line"/>
      <point x="259" y="0" type="line"/>
      <point x="259" y="41" type="line"/>
      <point x="157" y="55" type="line"/>
      <point x="187" y="21" type="line"/>
      <point x="187" y="589" type="line"/>
      <point x="197" y="664" type="line"/>
      <point x="25" y="638" type="line"/>
      <point x="25" y="605" type="line"/>
      <point x="136" y="577" type="line"/>
      <point x="107" y="614" type="line"/>
      <point x="107" y="21" type="line"/>
      <point x="137" y="55" type="line"/>
      <point x="35" y="41" type="line"/>
    </contour>
    <contour>
      <point x="237" y="664" type="move" name="right"/>
    </contour>
    <contour>
      <point x="151" y="642" type="move" name="topuc"/>
    </contour>
    <contour>
      <point x="151" y="0" type="move" name="bottom"/>
    </contour>
  </outline>
</glyph>
<glyph name="m" format="1">
  <advance width="823"/>
  <unicode hex="006D"/>
  <outline>
    <contour>
      <point x="25" y="0" type="line"/>
      <point x="249" y="0" type="line"/>
      <point x="249" y="42" type="line"/>
      <point x="147" y="56" type="line"/>
      <point x="177" y="22" type="line"/>
      <point x="177" y="327" type="line"/>
      <point x="217" y="357" type="line" smooth="yes"/>
      <point x="241" y="375"/>
      <point x="264" y="383"/>
      <point x="289" y="383" type="curve" smooth="yes"/>
      <point x="338" y="383"/>
      <point x="372" y="349"/>
      <point x="372" y="299" type="curve" smooth="yes"/>
      <point x="372" y="22" type="line"/>
      <point x="402" y="56" type="line"/>
      <point x="299" y="42" type="line"/>
      <point x="299" y="0" type="line"/>
      <point x="523" y="0" type="line"/>
      <point x="523" y="42" type="line"/>
      <point x="422" y="56" type="line"/>
      <point x="452" y="22" type="line"/>
      <point x="452" y="324" type="line" smooth="yes"/>
      <point x="452" y="412"/>
      <point x="410" y="455"/>
      <point x="326" y="455" type="curve" smooth="yes"/>
      <point x="285" y="455"/>
      <point x="248" y="438"/>
      <point x="202" y="396" type="curve" smooth="yes"/>
      <point x="147" y="346" type="line"/>
      <point x="166" y="336" type="line"/>
      <point x="177" y="455" type="line"/>
      <point x="25" y="444" type="line"/>
      <point x="25" y="411" type="line"/>
      <point x="124" y="364" type="line"/>
      <point x="97" y="407" type="line"/>
      <point x="97" y="22" type="line"/>
      <point x="127" y="56" type="line"/>
      <point x="25" y="42" type="line"/>
    </contour>
    <contour>
      <point x="574" y="0" type="line"/>
      <point x="798" y="0" type="line"/>
      <point x="798" y="42" type="line"/>
      <point x="697" y="56" type="line"/>
      <point x="727" y="22" type="line"/>
      <point x="727" y="324" type="line" smooth="yes"/>
      <point x="727" y="412"/>
      <point x="685" y="455"/>
      <point x="601" y="455" type="curve" smooth="yes"/>
      <point x="560" y="455"/>
      <point x="523" y="438"/>
      <point x="477" y="396" type="curve" smooth="yes"/>
      <point x="444" y="366" type="line"/>
      <point x="452" y="327" type="line"/>
      <point x="492" y="357" type="line" smooth="yes"/>
      <point x="516" y="375"/>
      <point x="539" y="383"/>
      <point x="564" y="383" type="curve" smooth="yes"/>
      <point x="613" y="383"/>
      <point x="647" y="349"/>
      <point x="647" y="299" type="curve" smooth="yes"/>
      <point x="647" y="22" type="line"/>
      <point x="677" y="56" type="line"/>
      <point x="574" y="42" type="line"/>
    </contour>
  </outline>
</glyph>
<glyph name="n" format="1">
  <advance width="558"/>
  <unicode hex="006E"/>
  <outline>
    <contour>
      <point x="15" y="0" type="line"/>
      <point x="249" y="0" type="line"/>
      <point x="249" y="42" type="line"/>
      <point x="147" y="56" type="line"/>
      <point x="177" y="22" type="line"/>
      <point x="177" y="327" type="line"/>
      <point x="217" y="357" type="line" smooth="yes"/>
      <point x="243" y="376"/>
      <point x="271" y="383"/>
      <point x="299" y="383" type="curve" smooth="yes"/>
      <point x="348" y="383"/>
      <point x="382" y="349"/>
      <point x="382" y="299" type="curve" smooth="yes"/>
      <point x="382" y="22" type="line"/>
      <point x="412" y="56" type="line"/>
      <point x="309" y="42" type="line"/>
      <point x="309" y="0" type="line"/>
      <point x="543" y="0" type="line"/>
      <point x="543" y="42" type="line"/>
      <point x="432" y="56" type="line"/>
      <point x="462" y="22" type="line"/>
      <point x="462" y="324" type="line" smooth="yes"/>
      <point x="462" y="412"/>
      <point x="420" y="455"/>
      <point x="336" y="455" type="curve" smooth="yes"/>
      <point x="292" y="455"/>
      <point x="250" y="440"/>
      <point x="202" y="396" type="curve" smooth="yes"/>
      <point x="169" y="366" type="line"/>
      <point x="177" y="455" type="line"/>
      <point x="15" y="444" type="line"/>
      <point x="15" y="411" type="line"/>
      <point x="124" y="364" type="line"/>
      <point x="97" y="407" type="line"/>
      <point x="97" y="22" type="line"/>
      <point x="127" y="56" type="line"/>
      <point x="15" y="42" type="line"/>
    </contour>
    <contour>
      <point x="274.0" y="444.0" type="move" name="toplc"/>
    </contour>
    <contour>
      <point x="274.0" y="0.0" type="move" name="bottom"/>
    </contour>
  </outline>
</glyph>
<glyph name="p" format="1">
  <advance width="513.0"/>
  <unicode hex="0070"/>
  <outline>
    <contour>
      <point x="137" y="14" type="curve"/>
      <point x="151" y="76" type="line"/>
      <point x="170" y="57"/>
      <point x="214" y="46"/>
      <point x="251" y="46" type="curve" smooth="yes"/>
      <point x="339" y="46"/>
      <point x="395" y="120"/>
      <point x="395" y="237" type="curve" smooth="yes"/>
      <point x="395" y="335"/>
      <point x="347" y="397"/>
      <point x="273" y="394" type="curve" smooth="yes"/>
      <point x="241" y="393"/>
      <point x="220" y="385"/>
      <point x="182" y="357" type="curve" smooth="yes"/>
      <point x="157" y="338" type="line"/>
      <point x="167" y="352" type="line"/>
      <point x="167" y="-189" type="line"/>
      <point x="137" y="-156" type="line"/>
      <point x="269" y="-169" type="line"/>
      <point x="269" y="-210" type="line"/>
      <point x="15" y="-210" type="line"/>
      <point x="15" y="-169" type="line"/>
      <point x="117" y="-155" type="line"/>
      <point x="87" y="-189" type="line"/>
      <point x="87" y="394" type="line"/>
      <point x="97" y="372" type="line"/>
      <point x="15" y="411" type="line"/>
      <point x="15" y="444" type="line"/>
      <point x="167" y="455" type="line"/>
      <point x="159" y="364" type="line"/>
      <point x="149" y="366" type="line"/>
      <point x="182" y="396" type="line" smooth="yes"/>
      <point x="227" y="437"/>
      <point x="264" y="454"/>
      <point x="306" y="454" type="curve" smooth="yes"/>
      <point x="408" y="454"/>
      <point x="478" y="371"/>
      <point x="478" y="249" type="curve" smooth="yes"/>
      <point x="478" y="99"/>
      <point x="379" y="-6"/>
      <point x="238" y="-6" type="curve" smooth="yes"/>
      <point x="199" y="-6"/>
      <point x="164" y="1"/>
    </contour>
  </outline>
</glyph>
<glyph name="q" format="1">
  <advance width="510.0"/>
  <unicode hex="0071"/>
  <outline>
    <contour>
      <point x="246" y="-210" type="line"/>
      <point x="500" y="-210" type="line"/>
      <point x="500" y="-169" type="line"/>
      <point x="398" y="-155" type="line"/>
      <point x="428" y="-189" type="line"/>
      <point x="428" y="352" type="line"/>
      <point x="437" y="475" type="line"/>
      <point x="403" y="475" type="line"/>
      <point x="348" y="392" type="line"/>
      <point x="348" y="-189" type="line"/>
      <point x="378" y="-156" type="line"/>
      <point x="246" y="-169" type="line"/>
    </contour>
    <contour>
      <point x="382" y="423" type="line"/>
      <point x="338" y="450"/>
      <point x="301" y="454"/>
      <point x="275" y="454" type="curve" smooth="yes"/>
      <point x="131" y="454"/>
      <point x="35" y="352"/>
      <point x="35" y="199" type="curve" smooth="yes"/>
      <point x="35" y="77"/>
      <point x="107" y="-7"/>
      <point x="207" y="-7" type="curve" smooth="yes"/>
      <point x="249" y="-7"/>
      <point x="293" y="7"/>
      <point x="335" y="51" type="curve" smooth="yes"/>
      <point x="364" y="82" type="line"/>
      <point x="356" y="120" type="line"/>
      <point x="333" y="99" type="line" smooth="yes"/>
      <point x="295" y="64"/>
      <point x="278" y="55"/>
      <point x="247" y="54" type="curve" smooth="yes"/>
      <point x="181" y="52"/>
      <point x="118" y="115"/>
      <point x="118" y="211" type="curve" smooth="yes"/>
      <point x="118" y="331"/>
      <point x="177" y="402"/>
      <point x="272" y="402" type="curve" smooth="yes"/>
      <point x="301" y="402"/>
      <point x="339" y="395"/>
      <point x="362" y="372" type="curve"/>
    </contour>
  </outline>
</glyph>
<glyph name="r" format="1">
  <advance width="342"/>
  <unicode hex="0072"/>
  <outline>
    <contour>
      <point x="25" y="0" type="line"/>
      <point x="279" y="0" type="line"/>
      <point x="279" y="41" type="line"/>
      <point x="147" y="54" type="line"/>
      <point x="177" y="21" type="line"/>
      <point x="177" y="334" type="line"/>
      <point x="154" y="308" type="line"/>
      <point x="207" y="351"/>
      <point x="238" y="379"/>
      <point x="265" y="376" type="curve" smooth="yes"/>
      <point x="331" y="368" type="line"/>
      <point x="359" y="433"/>
      <point x="331" y="455"/>
      <point x="294" y="455" type="curve" smooth="yes"/>
      <point x="249" y="455"/>
      <point x="212" y="424"/>
      <point x="160" y="346" type="curve"/>
      <point x="177" y="350" type="line"/>
      <point x="177" y="455" type="line"/>
      <point x="25" y="444" type="line"/>
      <point x="25" y="411" type="line"/>
      <point x="124" y="364" type="line"/>
      <point x="97" y="407" type="line"/>
      <point x="97" y="21" type="line"/>
      <point x="127" y="55" type="line"/>
      <point x="25" y="41" type="line"/>
    </contour>
    <contour>
      <point x="139.0" y="444.0" type="move" name="toplc"/>
    </contour>
    <contour>
      <point x="139.0" y="0.0" type="move" name="bottom"/>
    </contour>
  </outline>
</glyph>
<glyph name="x" format="1">
  <advance width="486"/>
  <unicode hex="0078"/>
  <outline>
    <contour>
      <point x="269" y="0" type="line"/>
      <point x="486" y="0" type="line"/>
      <point x="486" y="41" type="line"/>
      <point x="411" y="49" type="line"/>
      <point x="460" y="20" type="line"/>
      <point x="273" y="246" type="line"/>
      <point x="265" y="246" type="line"/>
      <point x="134" y="420" type="line"/>
      <point x="123" y="391" type="line"/>
      <point x="215" y="403" type="line"/>
      <point x="215" y="444" type="line"/>
      <point x="7" y="444" type="line"/>
      <point x="7" y="403" type="line"/>
      <point x="84" y="391" type="line"/>
      <point x="37" y="421" type="line"/>
      <point x="214" y="195" type="line"/>
      <point x="222" y="195" type="line"/>
      <point x="359" y="22" type="line"/>
      <point x="371" y="50" type="line"/>
      <point x="269" y="41" type="line"/>
    </contour>
    <contour>
      <point x="0" y="0" type="line"/>
      <point x="199.0" y="0.0" type="line"/>
      <point x="199.0" y="41.0" type="line"/>
      <point x="96.0" y="53.0" type="line"/>
      <point x="110.0" y="23.0" type="line"/>
      <point x="248" y="210" type="line"/>
      <point x="227" y="239" type="line"/>
      <point x="34.0" y="25.0" type="line"/>
      <point x="82.0" y="54.0" type="line"/>
      <point x="0.0" y="41.0" type="line"/>
    </contour>
    <contour>
      <point x="258" y="222" type="line"/>
      <point x="438" y="417" type="line"/>
      <point x="388" y="390" type="line"/>
      <point x="468" y="403" type="line"/>
      <point x="468" y="444" type="line"/>
      <point x="285" y="444" type="line"/>
      <point x="285" y="403" type="line"/>
      <point x="376" y="391" type="line"/>
      <point x="364" y="420" type="line"/>
      <point x="238" y="244" type="line"/>
    </contour>
  </outline>
</glyph>
<glyph name="y" format="1">
  <advance width="505"/>
  <unicode hex="0079"/>
  <outline>
    <contour>
      <point x="90" y="-220" type="line"/>
      <point x="189" y="-220" type="line"/>
      <point x="463" y="424" type="line"/>
      <point x="422" y="390" type="line"/>
      <point x="509" y="407" type="line"/>
      <point x="509" y="444" type="line"/>
      <point x="289" y="444" type="line"/>
      <point x="289" y="407" type="line"/>
      <point x="404" y="392" type="line"/>
      <point x="384" y="424" type="line"/>
      <point x="256" y="68" type="line"/>
      <point x="278" y="68" type="line"/>
      <point x="125" y="424" type="line"/>
      <point x="107" y="392" type="line"/>
      <point x="226" y="407" type="line"/>
      <point x="226" y="444" type="line"/>
      <point x="-21" y="444" type="line"/>
      <point x="-21" y="407" type="line"/>
      <point x="78" y="391" type="line"/>
      <point x="36" y="423" type="line"/>
      <point x="237" y="-27" type="line"/>
      <point x="241" y="26" type="line"/>
    </contour>
    <contour>
      <point x="257" y="444" type="move" name="toplc"/>
    </contour>
    <contour>
      <point x="318" y="-66" type="move" name="bottom"/>
    </contour>
  </outline>
</glyph>
<glyph name="z" format="1">
  <advance width="436"/>
  <unicode hex="007A"/>
  <outline>
    <contour>
      <point x="41" y="0" type="line"/>
      <point x="388" y="0" type="line"/>
      <point x="405" y="175" type="line"/>
      <point x="365" y="175" type="line"/>
      <point x="336" y="79" type="line" smooth="yes"/>
      <point x="330" y="60"/>
      <point x="316" y="51"/>
      <point x="296" y="51" type="curve" smooth="yes"/>
      <point x="119" y="51" type="line"/>
      <point x="121" y="26" type="line"/>
      <point x="386" y="403" type="line"/>
      <point x="386" y="444" type="line"/>
      <point x="51" y="444" type="line"/>
      <point x="51" y="281" type="line"/>
      <point x="95" y="281" type="line"/>
      <point x="129" y="423" type="line"/>
      <point x="92" y="394" type="line"/>
      <point x="309" y="394" type="line"/>
      <point x="307" y="418" type="line"/>
      <point x="41" y="41" type="line"/>
    </contour>
    <contour>
      <point x="218.0" y="444.0" type="move" name="toplc"/>
    </contour>
  </outline>
</glyph>
<glyph name="braceleft" format="1">
  <advance width="239"/>
  <unicode hex="007B"/>
  <outline>
    <contour>
      <point x="254.0" y="-124.0" type="curve"/>
      <point x="254.0" y="-94.0" type="line"/>
      <point x="202.0" y="-94.0"/>
      <point x="166.0" y="-62.0"/>
      <point x="166.0" y="6.0" type="curve" smooth="yes"/>
      <point x="166.0" y="107.0" type="line" smooth="yes"/>
      <point x="166.0" y="206.0"/>
      <point x="144.0" y="267.0"/>
      <point x="67.0" y="291.0" type="curve"/>
      <point x="67.0" y="295.0" type="line"/>
      <point x="130.0" y="312.0"/>
      <point x="166.0" y="377.0"/>
      <point x="166.0" y="479.0" type="curve" smooth="yes"/>
      <point x="166.0" y="581.0" type="line" smooth="yes"/>
      <point x="166.0" y="647.0"/>
      <point x="194.0" y="681.0"/>
      <point x="254.0" y="681.0" type="curve"/>
      <point x="254.0" y="710.0" type="line"/>
      <point x="170.0" y="730.0"/>
      <point x="89.0" y="690.0"/>
      <point x="93.0" y="569.0" type="curve" smooth="yes"/>
      <point x="98.0" y="433.0" type="line" smooth="yes"/>
      <point x="100.0" y="377.0"/>
      <point x="84" y="332"/>
      <point x="51" y="324" type="curve" smooth="yes"/>
      <point x="-4" y="311" type="line"/>
      <point x="-4" y="276" type="line"/>
      <point x="51" y="266" type="line" smooth="yes"/>
      <point x="83" y="260"/>
      <point x="100.0" y="213.0"/>
      <point x="98.0" y="153.0" type="curve" smooth="yes"/>
      <point x="93.0" y="19.0" type="line" smooth="yes"/>
      <point x="89.0" y="-99.0"/>
      <point x="161.0" y="-143.0"/>
    </contour>
  </outline>
</glyph>
<glyph name="braceright" format="1">
  <advance width="237"/>
  <unicode hex="007D"/>
  <outline>
    <contour>
      <point x="-18" y="-124" type="curve"/>
      <point x="-18" y="-94" type="line"/>
      <point x="34" y="-94"/>
      <point x="70" y="-62"/>
      <point x="70" y="6" type="curve" smooth="yes"/>
      <point x="70" y="107" type="line" smooth="yes"/>
      <point x="70" y="206"/>
      <point x="92" y="267"/>
      <point x="169" y="291" type="curve"/>
      <point x="169" y="295" type="line"/>
      <point x="106" y="312"/>
      <point x="70" y="377"/>
      <point x="70" y="479" type="curve" smooth="yes"/>
      <point x="70" y="581" type="line" smooth="yes"/>
      <point x="70" y="647"/>
      <point x="42" y="681"/>
      <point x="-18" y="681" type="curve"/>
      <point x="-18" y="710" type="line"/>
      <point x="66" y="730"/>
      <point x="147" y="690"/>
      <point x="143" y="569" type="curve" smooth="yes"/>
      <point x="138" y="433" type="line" smooth="yes"/>
      <point x="136" y="377"/>
      <point x="152" y="332"/>
      <point x="185" y="324" type="curve" smooth="yes"/>
      <point x="240" y="311" type="line"/>
      <point x="240" y="276" type="line"/>
      <point x="185" y="266" type="line" smooth="yes"/>
      <point x="153" y="260"/>
      <point x="136" y="213"/>
      <point x="138" y="153" type="curve" smooth="yes"/>
      <point x="143" y="19" type="line" smooth="yes"/>
      <point x="147" y="-99"/>
      <point x="75" y="-143"/>
    </contour>
  </outline>
</glyph>
<glyph name="asciitilde" format="1">
  <advance width="516"/>
  <unicode hex="007E"/>
  <outline>
    <contour>
      <point x="139" y="292" type="curve" smooth="yes"/>
      <point x="210" y="292"/>
      <point x="291" y="215"/>
      <point x="373" y="215" type="curve" smooth="yes"/>
      <point x="434" y="215"/>
      <point x="486" y="253"/>
      <point x="486" y="331" type="curve"/>
      <point x="445" y="331" type="line"/>
      <point x="442" y="284"/>
      <point x="416" y="265"/>
      <point x="376" y="265" type="curve" smooth="yes"/>
      <point x="302" y="265"/>
      <point x="220" y="344"/>
      <point x="142" y="344" type="curve" smooth="yes"/>
      <point x="81" y="344"/>
      <point x="30" y="299"/>
      <point x="30" y="221" type="curve"/>
      <point x="70" y="221" type="line"/>
      <point x="73" y="271"/>
      <point x="100" y="292"/>
    </contour>
  </outline>
</glyph>
<glyph name="cent" format="1">
  <advance width="447"/>
  <unicode hex="00A2"/>
  <outline>
    <contour>
      <point x="199" y="-33" type="line"/>
      <point x="246" y="-33" type="line"/>
      <point x="279" y="632" type="line"/>
      <point x="232" y="632" type="line"/>
    </contour>
    <component base="c" xOffset="2" yOffset="74"/>
  </outline>
</glyph>
<glyph name="currency" format="1">
  <advance width="484"/>
  <unicode hex="00A4"/>
  <outline>
    <contour>
      <point x="242" y="169" type="curve" smooth="yes"/>
      <point x="335" y="169"/>
      <point x="403" y="233"/>
      <point x="403" y="326" type="curve" smooth="yes"/>
      <point x="403" y="419"/>
      <point x="335" y="483"/>
      <point x="242" y="483" type="curve" smooth="yes"/>
      <point x="149" y="483"/>
      <point x="82" y="419"/>
      <point x="82" y="326" type="curve" smooth="yes"/>
      <point x="82" y="233"/>
      <point x="149" y="169"/>
    </contour>
    <contour>
      <point x="242" y="233" type="curve" smooth="yes"/>
      <point x="187" y="233"/>
      <point x="144" y="271"/>
      <point x="144" y="326" type="curve" smooth="yes"/>
      <point x="144" y="381"/>
      <point x="187" y="419"/>
      <point x="242" y="419" type="curve" smooth="yes"/>
      <point x="297" y="419"/>
      <point x="335" y="381"/>
      <point x="335" y="326" type="curve" smooth="yes"/>
      <point x="335" y="271"/>
      <point x="297" y="233"/>
    </contour>
    <contour>
      <point x="120" y="400" type="line"/>
      <point x="168" y="448" type="line"/>
      <point x="89" y="528" type="line"/>
      <point x="40" y="479" type="line"/>
    </contour>
    <contour>
      <point x="395" y="124" type="line"/>
      <point x="444" y="173" type="line"/>
      <point x="364" y="252" type="line"/>
      <point x="316" y="204" type="line"/>
    </contour>
    <contour>
      <point x="89" y="124" type="line"/>
      <point x="168" y="204" type="line"/>
      <point x="120" y="252" type="line"/>
      <point x="40" y="173" type="line"/>
    </contour>
    <contour>
      <point x="364" y="400" type="line"/>
      <point x="444" y="479" type="line"/>
      <point x="395" y="528" type="line"/>
      <point x="316" y="448" type="line"/>
    </contour>
  </outline>
</glyph>
<glyph name="yen" format="1">
  <advance width="658"/>
  <unicode hex="00A5"/>
  <outline>
    <contour>
      <point x="114" y="151" type="line"/>
      <point x="539" y="151" type="line"/>
      <point x="545" y="197" type="line"/>
      <point x="120" y="197" type="line"/>
    </contour>
    <contour>
      <point x="114" y="251" type="line"/>
      <point x="539" y="251" type="line"/>
      <point x="545" y="297" type="line"/>
      <point x="120" y="297" type="line"/>
    </contour>
    <contour>
      <point x="182" y="0" type="line"/>
      <point x="469" y="0" type="line"/>
      <point x="469" y="51" type="line"/>
      <point x="340" y="64" type="line"/>
      <point x="370" y="27" type="line"/>
      <point x="370" y="252" type="line"/>
      <point x="564" y="611" type="line"/>
      <point x="519" y="577" type="line"/>
      <point x="618" y="591" type="line"/>
      <point x="618" y="642" type="line"/>
      <point x="390" y="642" type="line"/>
      <point x="390" y="591" type="line"/>
      <point x="503" y="578" type="line"/>
      <point x="487" y="612" type="line"/>
      <point x="335" y="282" type="line"/>
      <point x="364" y="283" type="line"/>
      <point x="194" y="611" type="line"/>
      <point x="179" y="578" type="line"/>
      <point x="307" y="591" type="line"/>
      <point x="307" y="642" type="line"/>
      <point x="40" y="642" type="line"/>
      <point x="40" y="591" type="line"/>
      <point x="137" y="577" type="line"/>
      <point x="92" y="611" type="line"/>
      <point x="280" y="252" type="line"/>
      <point x="280" y="27" type="line"/>
      <point x="310" y="64" type="line"/>
      <point x="182" y="51" type="line"/>
    </contour>
  </outline>
</glyph>
<glyph name="section" format="1">
  <advance width="480"/>
  <unicode hex="00A7"/>
  <outline>
    <contour>
      <point x="175" y="-103" type="curve" smooth="yes"/>
      <point x="301" y="-103"/>
      <point x="427" y="54"/>
      <point x="427" y="181" type="curve" smooth="yes"/>
      <point x="427" y="263"/>
      <point x="391" y="322"/>
      <point x="327" y="376" type="curve" smooth="yes"/>
      <point x="246" y="445" type="line" smooth="yes"/>
      <point x="201" y="483"/>
      <point x="186" y="505"/>
      <point x="186" y="534" type="curve" smooth="yes"/>
      <point x="186" y="566"/>
      <point x="212" y="587"/>
      <point x="251" y="587" type="curve" smooth="yes"/>
      <point x="268" y="587"/>
      <point x="290" y="581"/>
      <point x="311" y="569" type="curve" smooth="yes"/>
      <point x="344" y="551" type="line"/>
      <point x="358" y="567"/>
      <point x="365" y="582"/>
      <point x="365" y="595" type="curve" smooth="yes"/>
      <point x="365" y="621"/>
      <point x="338" y="640"/>
      <point x="292" y="640" type="curve" smooth="yes"/>
      <point x="177" y="640"/>
      <point x="53" y="505"/>
      <point x="53" y="379" type="curve" smooth="yes"/>
      <point x="53" y="314"/>
      <point x="87" y="258"/>
      <point x="133" y="213" type="curve" smooth="yes"/>
      <point x="219" y="129" type="line" smooth="yes"/>
      <point x="267" y="83"/>
      <point x="292" y="40"/>
      <point x="292" y="12" type="curve" smooth="yes"/>
      <point x="292" y="-22"/>
      <point x="266" y="-44"/>
      <point x="222" y="-44" type="curve" smooth="yes"/>
      <point x="203" y="-44"/>
      <point x="183" y="-41"/>
      <point x="161" y="-29" type="curve" smooth="yes"/>
      <point x="120" y="-7" type="line"/>
      <point x="105" y="-26"/>
      <point x="98" y="-44"/>
      <point x="98" y="-58" type="curve" smooth="yes"/>
      <point x="98" y="-86"/>
      <point x="125" y="-103"/>
    </contour>
    <contour>
      <point x="335" y="45" type="curve"/>
      <point x="339" y="92"/>
      <point x="319" y="136"/>
      <point x="285" y="169" type="curve" smooth="yes"/>
      <point x="178" y="269" type="line" smooth="yes"/>
      <point x="139" y="305"/>
      <point x="104" y="345"/>
      <point x="104" y="398" type="curve" smooth="yes"/>
      <point x="104" y="440"/>
      <point x="116" y="480"/>
      <point x="143" y="512" type="curve"/>
      <point x="137" y="467"/>
      <point x="160" y="427"/>
      <point x="194" y="397" type="curve" smooth="yes"/>
      <point x="311" y="290" type="line" smooth="yes"/>
      <point x="353" y="252"/>
      <point x="375" y="201"/>
      <point x="375" y="144" type="curve" smooth="yes"/>
      <point x="375" y="107"/>
      <point x="359" y="73"/>
    </contour>
  </outline>
</glyph>
<glyph name="dieresis" format="1">
  <advance width="355"/>
  <unicode hex="00A8"/>
  <outline>
    <contour>
      <point x="35" y="580" type="curve" smooth="yes"/>
      <point x="35" y="550"/>
      <point x="57" y="528"/>
      <point x="87" y="528" type="curve" smooth="yes"/>
      <point x="117" y="528"/>
      <point x="139" y="551"/>
      <point x="139" y="580" type="curve" smooth="yes"/>
      <point x="139" y="610"/>
      <point x="117" y="632"/>
      <point x="87" y="632" type="curve" smooth="yes"/>
      <point x="58" y="632"/>
      <point x="35" y="610"/>
    </contour>
    <contour>
      <point x="216" y="580" type="curve" smooth="yes"/>
      <point x="216" y="550"/>
      <point x="238" y="528"/>
      <point x="268" y="528" type="curve" smooth="yes"/>
      <point x="298" y="528"/>
      <point x="320" y="551"/>
      <point x="320" y="580" type="curve" smooth="yes"/>
      <point x="320" y="610"/>
      <point x="298" y="632"/>
      <point x="268" y="632" type="curve" smooth="yes"/>
      <point x="239" y="632"/>
      <point x="216" y="610"/>
    </contour>
    <contour>
      <point x="177" y="444" type="move" name="_toplc"/>
    </contour>
  </outline>
</glyph>
<glyph name="copyright" format="1">
  <advance width="821"/>
  <unicode hex="00A9"/>
  <outline>
    <contour>
      <point x="409" y="-62" type="curve" smooth="yes"/>
      <point x="616" y="-62"/>
      <point x="776" y="96"/>
      <point x="776" y="301" type="curve" smooth="yes"/>
      <point x="776" y="505"/>
      <point x="616" y="664"/>
      <point x="409" y="664" type="curve" smooth="yes"/>
      <point x="205" y="664"/>
      <point x="45" y="505"/>
      <point x="45" y="301" type="curve" smooth="yes"/>
      <point x="45" y="96"/>
      <point x="205" y="-62"/>
    </contour>
    <contour>
      <point x="409" y="-13" type="curve" smooth="yes"/>
      <point x="235" y="-13"/>
      <point x="101" y="122"/>
      <point x="101" y="301" type="curve" smooth="yes"/>
      <point x="101" y="479"/>
      <point x="235" y="615"/>
      <point x="409" y="615" type="curve" smooth="yes"/>
      <point x="585" y="615"/>
      <point x="721" y="479"/>
      <point x="721" y="301" type="curve" smooth="yes"/>
      <point x="721" y="122"/>
      <point x="585" y="-13"/>
    </contour>
    <component base="C" xScale="0.652607511775" yScale="0.652607511775" xOffset="179" yOffset="100"/>
  </outline>
</glyph>
<glyph name="guillemotleft" format="1">
  <advance width="522"/>
  <unicode hex="00AB"/>
  <outline>
    <contour>
      <point x="227" y="58" type="line"/>
      <point x="264" y="101" type="line"/>
      <point x="148" y="222" type="line"/>
      <point x="264" y="343" type="line"/>
      <point x="227" y="386" type="line"/>
      <point x="70" y="238" type="line"/>
      <point x="70" y="206" type="line"/>
    </contour>
    <contour>
      <point x="418" y="43" type="line"/>
      <point x="452" y="78" type="line"/>
      <point x="321" y="222" type="line"/>
      <point x="452" y="366" type="line"/>
      <point x="418" y="401" type="line"/>
      <point x="235" y="229" type="line"/>
      <point x="235" y="215" type="line"/>
    </contour>
  </outline>
</glyph>
<glyph name="logicalnot" format="1">
  <advance width="582"/>
  <unicode hex="00AC"/>
  <outline>
    <contour>
      <point x="476" y="247" type="line"/>
      <point x="522" y="247" type="line"/>
      <point x="522" y="468" type="line"/>
      <point x="60" y="468" type="line"/>
      <point x="60" y="424" type="line"/>
      <point x="476" y="424" type="line"/>
    </contour>
  </outline>
</glyph>
<glyph name="Eth" format="1">
  <advance width="732"/>
  <unicode hex="00D0"/>
  <outline>
    <contour>
      <point x="352" y="300" type="line"/>
      <point x="352" y="350" type="line"/>
      <point x="67" y="350" type="line"/>
      <point x="67" y="300" type="line"/>
    </contour>
    <component base="D"/>
  </outline>
</glyph>
<glyph name="Oslash" format="1">
  <advance width="709"/>
  <unicode hex="00D8"/>
  <outline>
    <contour>
      <point x="558" y="728" type="line"/>
      <point x="109" y="-79" type="line"/>
      <point x="150" y="-103" type="line"/>
      <point x="599" y="705" type="line"/>
    </contour>
    <component base="O"/>
  </outline>
</glyph>
<glyph name="Thorn" format="1">
  <advance width="569"/>
  <unicode hex="00DE"/>
  <outline>
    <contour>
      <point x="200" y="478" type="line"/>
      <point x="283" y="478" type="line" smooth="yes"/>
      <point x="376" y="478"/>
      <point x="439" y="428"/>
      <point x="439" y="318" type="curve" smooth="yes"/>
      <point x="439" y="215"/>
      <point x="371" y="167"/>
      <point x="259" y="185" type="curve"/>
      <point x="259" y="145" type="line"/>
      <point x="414" y="104"/>
      <point x="537" y="175"/>
      <point x="537" y="328" type="curve" smooth="yes"/>
      <point x="537" y="483"/>
      <point x="418" y="525"/>
      <point x="280" y="525" type="curve" smooth="yes"/>
      <point x="200" y="525" type="line"/>
    </contour>
    <contour>
      <point x="26" y="0" type="line"/>
      <point x="329" y="0" type="line"/>
      <point x="329" y="51" type="line"/>
      <point x="190" y="64" type="line"/>
      <point x="220" y="31" type="line"/>
      <point x="220" y="611" type="line"/>
      <point x="190" y="578" type="line"/>
      <point x="329" y="591" type="line"/>
      <point x="329" y="642" type="line"/>
      <point x="26" y="642" type="line"/>
      <point x="26" y="591" type="line"/>
      <point x="164" y="578" type="line"/>
      <point x="134" y="611" type="line"/>
      <point x="134" y="31" type="line"/>
      <point x="164" y="64" type="line"/>
      <point x="26" y="51" type="line"/>
    </contour>
  </outline>
</glyph>
<glyph name="germandbls" format="1">
  <advance width="600"/>
  <unicode hex="00DF"/>
  <outline>
    <contour>
      <point x="299" y="673" type="curve" smooth="yes"/>
      <point x="181" y="673"/>
      <point x="102" y="594"/>
      <point x="102" y="481" type="curve" smooth="yes"/>
      <point x="102" y="437" type="line"/>
      <point x="28" y="425" type="line"/>
      <point x="28" y="385" type="line"/>
      <point x="101" y="385" type="line"/>
      <point x="101" y="0" type="line"/>
      <point x="181" y="0" type="line"/>
      <point x="181" y="504" type="line" smooth="yes"/>
      <point x="181" y="561"/>
      <point x="201" y="626"/>
      <point x="286" y="626" type="curve" smooth="yes"/>
      <point x="346" y="626"/>
      <point x="385" y="587"/>
      <point x="385" y="531" type="curve" smooth="yes"/>
      <point x="385" y="488"/>
      <point x="365" y="453"/>
      <point x="325" y="436" type="curve" smooth="yes"/>
      <point x="272" y="413"/>
      <point x="241" y="368"/>
      <point x="241" y="313" type="curve" smooth="yes"/>
      <point x="241" y="251"/>
      <point x="279" y="213"/>
      <point x="379" y="180" type="curve" smooth="yes"/>
      <point x="462" y="153"/>
      <point x="480" y="138"/>
      <point x="480" y="95" type="curve" smooth="yes"/>
      <point x="480" y="56"/>
      <point x="443" y="29"/>
      <point x="390" y="29" type="curve" smooth="yes"/>
      <point x="340" y="29"/>
      <point x="309" y="44"/>
      <point x="296" y="76" type="curve" smooth="yes"/>
      <point x="270" y="141" type="line"/>
      <point x="234" y="141" type="line"/>
      <point x="245" y="24" type="line"/>
      <point x="274" y="-3"/>
      <point x="323" y="-18"/>
      <point x="382" y="-18" type="curve" smooth="yes"/>
      <point x="487" y="-18"/>
      <point x="557" y="38"/>
      <point x="557" y="121" type="curve" smooth="yes"/>
      <point x="557" y="180"/>
      <point x="518" y="221"/>
      <point x="427" y="254" type="curve" smooth="yes"/>
      <point x="333" y="287"/>
      <point x="312" y="304"/>
      <point x="312" y="341" type="curve" smooth="yes"/>
      <point x="312" y="386"/>
      <point x="353" y="395"/>
      <point x="394" y="412" type="curve" smooth="yes"/>
      <point x="434" y="429"/>
      <point x="474" y="453"/>
      <point x="474" y="535" type="curve" smooth="yes"/>
      <point x="474" y="607"/>
      <point x="414" y="673"/>
    </contour>
    <contour>
      <point x="168" y="0" type="line"/>
      <point x="181" y="51" type="line"/>
      <point x="101" y="51" type="line"/>
      <point x="29" y="41" type="line"/>
      <point x="29" y="0" type="line"/>
    </contour>
  </outline>
</glyph>
<glyph name="eth" format="1">
  <advance width="502"/>
  <unicode hex="00F0"/>
  <outline>
    <contour>
      <point x="245" y="-15" type="curve" smooth="yes"/>
      <point x="368.055299539" y="-15.0"/>
      <point x="452.0" y="96.0"/>
      <point x="452" y="245" type="curve" smooth="yes"/>
      <point x="452.0" y="481.0"/>
      <point x="308.878627968" y="649.0"/>
      <point x="83" y="676" type="curve"/>
      <point x="75" y="645" type="line"/>
      <point x="263.543046358" y="588.0"/>
      <point x="351.529801325" y="451.0"/>
      <point x="367" y="233" type="curve" smooth="yes"/>
      <point x="375.166666667" y="107.0"/>
      <point x="337.055555556" y="43.0"/>
      <point x="269" y="37" type="curve"/>
      <point x="194" y="32"/>
      <point x="139" y="99"/>
      <point x="130" y="220" type="curve" smooth="yes"/>
      <point x="122" y="333"/>
      <point x="155" y="402"/>
      <point x="238" y="410" type="curve" smooth="yes"/>
      <point x="305.511278195" y="417.0"/>
      <point x="348.052631579" y="360.0"/>
      <point x="361" y="288" type="curve"/>
      <point x="390" y="374" type="line"/>
      <point x="390" y="374"/>
      <point x="354.585034014" y="450.0"/>
      <point x="253" y="450" type="curve" smooth="yes"/>
      <point x="129" y="450"/>
      <point x="40" y="349"/>
      <point x="40" y="210" type="curve" smooth="yes"/>
      <point x="40" y="82"/>
      <point x="124" y="-15"/>
    </contour>
    <contour>
      <point x="133" y="496" type="line"/>
      <point x="404" y="648" type="line"/>
      <point x="388" y="675" type="line"/>
      <point x="118" y="525" type="line"/>
    </contour>
  </outline>
</glyph>
<glyph name="divide" format="1">
  <advance width="552"/>
  <unicode hex="00F7"/>
  <outline>
    <contour>
      <point x="220" y="428" type="curve" smooth="yes"/>
      <point x="220" y="396"/>
      <point x="245" y="371"/>
      <point x="277" y="371" type="curve" smooth="yes"/>
      <point x="308" y="371"/>
      <point x="334" y="396"/>
      <point x="334" y="428" type="curve" smooth="yes"/>
      <point x="334" y="459"/>
      <point x="308" y="485"/>
      <point x="277" y="485" type="curve" smooth="yes"/>
      <point x="245" y="485"/>
      <point x="220" y="459"/>
    </contour>
    <contour>
      <point x="220" y="125" type="curve" smooth="yes"/>
      <point x="220" y="93"/>
      <point x="245" y="68"/>
      <point x="277" y="68" type="curve" smooth="yes"/>
      <point x="308" y="68"/>
      <point x="334" y="93"/>
      <point x="334" y="125" type="curve" smooth="yes"/>
      <point x="334" y="156"/>
      <point x="308" y="182"/>
      <point x="277" y="182" type="curve" smooth="yes"/>
      <point x="245" y="182"/>
      <point x="220" y="156"/>
    </contour>
    <contour>
      <point x="50" y="250" type="line"/>
      <point x="502" y="250" type="line"/>
      <point x="502" y="304" type="line"/>
      <point x="50" y="304" type="line"/>
    </contour>
  </outline>
</glyph>
<glyph name="thorn" format="1">
  <advance width="518"/>
  <unicode hex="00FE"/>
  <outline>
    <contour>
      <point x="20" y="-210" type="line"/>
      <point x="274" y="-210" type="line"/>
      <point x="274" y="-169" type="line"/>
      <point x="142" y="-156" type="line"/>
      <point x="172" y="-189" type="line"/>
      <point x="172" y="195" type="line"/>
      <point x="92" y="195" type="line"/>
      <point x="92" y="-189" type="line"/>
      <point x="122" y="-155" type="line"/>
      <point x="20" y="-169" type="line"/>
    </contour>
    <contour>
      <point x="92" y="26" type="line"/>
      <point x="154" y="-1"/>
      <point x="201" y="-7"/>
      <point x="243" y="-7" type="curve" smooth="yes"/>
      <point x="387" y="-7"/>
      <point x="483" y="95"/>
      <point x="483" y="248" type="curve" smooth="yes"/>
      <point x="483" y="359"/>
      <point x="422" y="453"/>
      <point x="311" y="453" type="curve" smooth="yes"/>
      <point x="269" y="453"/>
      <point x="232" y="436"/>
      <point x="187" y="395" type="curve" smooth="yes"/>
      <point x="154" y="365" type="line"/>
      <point x="162" y="337" type="line"/>
      <point x="187" y="356" type="line" smooth="yes"/>
      <point x="226" y="385"/>
      <point x="247" y="392"/>
      <point x="278" y="393" type="curve" smooth="yes"/>
      <point x="362" y="396"/>
      <point x="400" y="320"/>
      <point x="400" y="236" type="curve" smooth="yes"/>
      <point x="400" y="116"/>
      <point x="341" y="45"/>
      <point x="246" y="45" type="curve" smooth="yes"/>
      <point x="217" y="45"/>
      <point x="179" y="51"/>
      <point x="156" y="75" type="curve"/>
      <point x="172" y="43" type="line"/>
      <point x="172" y="589" type="line"/>
      <point x="182" y="664" type="line"/>
      <point x="10" y="638" type="line"/>
      <point x="10" y="605" type="line"/>
      <point x="102" y="581" type="line"/>
      <point x="92" y="603" type="line"/>
    </contour>
  </outline>
</glyph>
<glyph name="Dcroat" format="1">
  <advance width="732"/>
  <unicode hex="0110"/>
  <outline>
    <contour>
      <point x="352" y="300" type="line"/>
      <point x="352" y="350" type="line"/>
      <point x="67" y="350" type="line"/>
      <point x="67" y="300" type="line"/>
    </contour>
    <contour>
      <point x="26" y="0" type="line"/>
      <point x="342" y="-2" type="line" smooth="yes"/>
      <point x="553" y="-3"/>
      <point x="675" y="118"/>
      <point x="675" y="329" type="curve" smooth="yes"/>
      <point x="675" y="528"/>
      <point x="522" y="646"/>
      <point x="323" y="644" type="curve" smooth="yes"/>
      <point x="26" y="642" type="line"/>
      <point x="26" y="591" type="line"/>
      <point x="164" y="578" type="line"/>
      <point x="134" y="621" type="line"/>
      <point x="134" y="31" type="line"/>
      <point x="164" y="64" type="line"/>
      <point x="26" y="51" type="line"/>
    </contour>
    <contour>
      <point x="292" y="46" type="curve" smooth="yes"/>
      <point x="246" y="46"/>
      <point x="220" y="67"/>
      <point x="220" y="103" type="curve" smooth="yes"/>
      <point x="220" y="591" type="line"/>
      <point x="288" y="591" type="line" smooth="yes"/>
      <point x="453" y="591"/>
      <point x="577" y="492"/>
      <point x="577" y="327" type="curve" smooth="yes"/>
      <point x="577" y="149"/>
      <point x="473" y="46"/>
    </contour>
  </outline>
</glyph>
<glyph name="Lcaron" format="1">
  <advance width="559"/>
  <unicode hex="013D"/>
  <outline>
    <contour>
      <point x="403" y="462" type="line"/>
      <point x="414" y="522"/>
      <point x="420" y="582"/>
      <point x="411" y="642" type="curve"/>
      <point x="482" y="642" type="line"/>
      <point x="475" y="576"/>
      <point x="464" y="513"/>
      <point x="424" y="460" type="curve"/>
    </contour>
    <contour>
      <point x="26" y="0" type="line"/>
      <point x="500" y="0" type="line"/>
      <point x="544" y="212" type="line"/>
      <point x="495" y="212" type="line"/>
      <point x="452" y="122" type="line" smooth="yes"/>
      <point x="428" y="70"/>
      <point x="417" y="60"/>
      <point x="369" y="57" type="curve" smooth="yes"/>
      <point x="283" y="52" type="line" smooth="yes"/>
      <point x="229" y="49"/>
      <point x="220" y="62"/>
      <point x="220" y="110" type="curve" smooth="yes"/>
      <point x="220" y="611" type="line"/>
      <point x="190" y="578" type="line"/>
      <point x="329" y="591" type="line"/>
      <point x="329" y="642" type="line"/>
      <point x="26" y="642" type="line"/>
      <point x="26" y="591" type="line"/>
      <point x="164" y="578" type="line"/>
      <point x="134" y="611" type="line"/>
      <point x="134" y="21" type="line"/>
      <point x="164" y="64" type="line"/>
      <point x="26" y="51" type="line"/>
    </contour>
  </outline>
</glyph>
<glyph name="longs" format="1">
  <advance width="273"/>
  <unicode hex="017F"/>
  <outline>
    <contour>
      <point x="25" y="0" type="line"/>
      <point x="245" y="0" type="line"/>
      <point x="245" y="44" type="line"/>
      <point x="147" y="55" type="line"/>
      <point x="177" y="21" type="line"/>
      <point x="177" y="488" type="line" smooth="yes"/>
      <point x="177" y="586"/>
      <point x="211" y="621"/>
      <point x="278" y="598" type="curve" smooth="yes"/>
      <point x="354" y="572" type="line"/>
      <point x="378" y="617"/>
      <point x="369" y="666"/>
      <point x="294" y="666" type="curve" smooth="yes"/>
      <point x="186" y="666"/>
      <point x="115" y="595"/>
      <point x="103" y="482" type="curve" smooth="yes"/>
      <point x="99" y="444" type="line"/>
      <point x="19" y="434" type="line"/>
      <point x="19" y="385" type="line"/>
      <point x="97" y="385" type="line"/>
      <point x="97" y="21" type="line"/>
      <point x="127" y="55" type="line"/>
      <point x="25" y="41" type="line"/>
    </contour>
  </outline>
</glyph>
<glyph name="uhorn" format="1">
  <advance width="547"/>
  <unicode hex="01B0"/>
  <outline>
    <contour>
      <point x="401" y="412" type="line"/>
      <point x="471" y="405"/>
      <point x="539" y="428"/>
      <point x="539" y="496" type="curve" smooth="yes"/>
      <point x="539" y="531"/>
      <point x="517" y="556"/>
      <point x="482" y="556" type="curve" smooth="yes"/>
      <point x="453" y="556"/>
      <point x="442" y="537"/>
      <point x="441" y="508" type="curve"/>
      <point x="468" y="500" type="line" smooth="yes"/>
      <point x="483" y="496"/>
      <point x="495" y="489"/>
      <point x="495" y="474" type="curve" smooth="yes"/>
      <point x="495" y="450"/>
      <point x="464" y="451"/>
      <point x="440" y="450" type="curve" smooth="yes"/>
      <point x="395" y="448" type="line"/>
    </contour>
    <component base="u"/>
    <contour>
      <point x="268.0" y="444.0" type="move" name="toplc"/>
    </contour>
    <contour>
      <point x="268" y="0" type="move" name="bottom"/>
    </contour>
  </outline>
</glyph>
<glyph name="Oslashacute" format="1">
  <advance width="709"/>
  <unicode hex="01FE"/>
  <outline>
    <contour>
      <point x="558" y="728" type="line"/>
      <point x="109" y="-79" type="line"/>
      <point x="150" y="-103" type="line"/>
      <point x="599" y="705" type="line"/>
    </contour>
    <contour>
      <point x="370" y="654" type="curve" smooth="yes"/>
      <point x="174" y="654"/>
      <point x="46" y="509"/>
      <point x="46" y="313" type="curve" smooth="yes"/>
      <point x="46" y="129"/>
      <point x="155" y="-15"/>
      <point x="339" y="-15" type="curve" smooth="yes"/>
      <point x="536" y="-15"/>
      <point x="663" y="130"/>
      <point x="663" y="327" type="curve" smooth="yes"/>
      <point x="663" y="511"/>
      <point x="554" y="654"/>
    </contour>
    <contour>
      <point x="359" y="45" type="curve" smooth="yes"/>
      <point x="208" y="45"/>
      <point x="146" y="173"/>
      <point x="146" y="313" type="curve" smooth="yes"/>
      <point x="146" y="460"/>
      <point x="185" y="595"/>
      <point x="350" y="595" type="curve" smooth="yes"/>
      <point x="502" y="595"/>
      <point x="562" y="467"/>
      <point x="562" y="326" type="curve" smooth="yes"/>
      <point x="562" y="179"/>
      <point x="523" y="45"/>
    </contour>
    <contour>
      <point x="407" y="851" type="line"/>
      <point x="316" y="705" type="line"/>
      <point x="353" y="694" type="line"/>
      <point x="494" y="824" type="line"/>
      <point x="494" y="827" type="line"/>
    </contour>
  </outline>
</glyph>
<glyph name="circumflex" format="1">
  <advance width="326"/>
  <unicode hex="02C6"/>
  <outline>
    <contour>
      <point x="59" y="508" type="line"/>
      <point x="86" y="492" type="line"/>
      <point x="162" y="583" type="line"/>
      <point x="238" y="492" type="line"/>
      <point x="265" y="508" type="line"/>
      <point x="173" y="665" type="line"/>
      <point x="151" y="665" type="line"/>
    </contour>
    <contour>
      <point x="162" y="444" type="move" name="_toplc"/>
    </contour>
  </outline>
</glyph>
<glyph name="caron" format="1">
  <advance width="326"/>
  <unicode hex="02C7"/>
  <outline>
    <component base="circumflex" xScale="-1" yScale="-1" xOffset="325" yOffset="1159"/>
    <contour>
      <point x="163" y="444" type="move" name="_toplc"/>
    </contour>
  </outline>
</glyph>
<glyph name="uni02C9" format="1">
  <advance width="425"/>
  <unicode hex="02C9"/>
  <note>
    chinese tone mark
  </note>
  <outline>
    <contour>
      <point x="80" y="506" type="line"/>
      <point x="345" y="506" type="line"/>
      <point x="345" y="561" type="line"/>
      <point x="80" y="561" type="line"/>
    </contour>
  </outline>
</glyph>
<glyph name="ring" format="1">
  <advance width="282"/>
  <unicode hex="02DA"/>
  <outline>
    <contour>
      <point x="97" y="580" type="curve" smooth="yes"/>
      <point x="97" y="607"/>
      <point x="114" y="628"/>
      <point x="141" y="628" type="curve" smooth="yes"/>
      <point x="168" y="628"/>
      <point x="185" y="607"/>
      <point x="185" y="580" type="curve" smooth="yes"/>
      <point x="185" y="554"/>
      <point x="167" y="534"/>
      <point x="141" y="534" type="curve" smooth="yes"/>
      <point x="114" y="534"/>
      <point x="97" y="553"/>
    </contour>
    <contour>
      <point x="56" y="580" type="curve" smooth="yes"/>
      <point x="56" y="532"/>
      <point x="93" y="499"/>
      <point x="141" y="499" type="curve" smooth="yes"/>
      <point x="189" y="499"/>
      <point x="227" y="532"/>
      <point x="227" y="580" type="curve" smooth="yes"/>
      <point x="227" y="628"/>
      <point x="189" y="662"/>
      <point x="141" y="662" type="curve" smooth="yes"/>
      <point x="93" y="662"/>
      <point x="56" y="628"/>
    </contour>
    <contour>
      <point x="141.0" y="444.0" type="move" name="_toplc"/>
    </contour>
  </outline>
</glyph>
<glyph name="tilde" format="1">
  <advance width="347"/>
  <unicode hex="02DC"/>
  <outline>
    <contour>
      <point x="40" y="534" type="curve"/>
      <point x="65" y="531" type="line"/>
      <point x="76" y="568"/>
      <point x="92" y="587"/>
      <point x="111" y="587" type="curve" smooth="yes"/>
      <point x="150" y="587"/>
      <point x="168" y="526"/>
      <point x="230" y="526" type="curve" smooth="yes"/>
      <point x="272" y="526"/>
      <point x="299" y="564"/>
      <point x="307" y="635" type="curve"/>
      <point x="282" y="638" type="line"/>
      <point x="271" y="602"/>
      <point x="256" y="583"/>
      <point x="236" y="583" type="curve" smooth="yes"/>
      <point x="197" y="583"/>
      <point x="181" y="643"/>
      <point x="117" y="643" type="curve" smooth="yes"/>
      <point x="75" y="643"/>
      <point x="48" y="605"/>
    </contour>
    <contour>
      <point x="173" y="444" type="move" name="_toplc"/>
    </contour>
  </outline>
</glyph>
<glyph name="cmb:hookabovecomb" format="1">
  <advance width="368"/>
  <unicode hex="0309"/>
  <outline>
    <contour>
      <point x="201" y="494" type="line"/>
      <point x="220" y="546"/>
      <point x="273" y="558"/>
      <point x="273" y="613" type="curve" smooth="yes"/>
      <point x="273" y="658"/>
      <point x="236" y="684"/>
      <point x="191" y="684" type="curve" smooth="yes"/>
      <point x="142" y="684"/>
      <point x="105" y="655"/>
      <point x="100" y="597" type="curve"/>
      <point x="118" y="592" type="line"/>
      <point x="130" y="615"/>
      <point x="151" y="632"/>
      <point x="173" y="632" type="curve" smooth="yes"/>
      <point x="194" y="632"/>
      <point x="209" y="619"/>
      <point x="209" y="598" type="curve" smooth="yes"/>
      <point x="209" y="560"/>
      <point x="174" y="535"/>
      <point x="168" y="497" type="curve"/>
    </contour>
    <contour>
      <point x="184" y="444" type="move" name="_toplc"/>
    </contour>
  </outline>
</glyph>
<glyph name="cmb:horn" format="1">
  <advance width="500"/>
  <unicode hex="031B"/>
  <outline>
    <contour>
      <point x="224" y="375" type="line"/>
      <point x="294" y="368"/>
      <point x="362" y="391"/>
      <point x="362" y="459" type="curve" smooth="yes"/>
      <point x="362" y="494"/>
      <point x="340" y="519"/>
      <point x="305" y="519" type="curve" smooth="yes"/>
      <point x="276" y="519"/>
      <point x="265" y="500"/>
      <point x="264" y="471" type="curve"/>
      <point x="291" y="463" type="line" smooth="yes"/>
      <point x="306" y="459"/>
      <point x="318" y="452"/>
      <point x="318" y="437" type="curve" smooth="yes"/>
      <point x="318" y="413"/>
      <point x="292" y="412"/>
      <point x="268" y="412" type="curve" smooth="yes"/>
      <point x="251" y="412"/>
      <point x="235" y="414"/>
      <point x="219" y="417" type="curve"/>
    </contour>
    <contour>
      <point x="196.0" y="403.0" type="move" name="_right"/>
    </contour>
  </outline>
</glyph>
<glyph name="cmb:turnedbelow" format="1">
  <advance width="177"/>
  <unicode hex="0326"/>
  <outline>
    <contour>
      <point x="54" y="-228" type="line"/>
      <point x="118" y="-208"/>
      <point x="157" y="-166"/>
      <point x="157" y="-116" type="curve" smooth="yes"/>
      <point x="157" y="-69"/>
      <point x="136" y="-42"/>
      <point x="100" y="-42" type="curve" smooth="yes"/>
      <point x="68" y="-42"/>
      <point x="45" y="-62"/>
      <point x="45" y="-90" type="curve" smooth="yes"/>
      <point x="45" y="-99"/>
      <point x="48" y="-108"/>
      <point x="53" y="-117" type="curve"/>
      <point x="76" y="-121" type="line" smooth="yes"/>
      <point x="95" y="-125"/>
      <point x="103" y="-131"/>
      <point x="103" y="-144" type="curve" smooth="yes"/>
      <point x="103" y="-164"/>
      <point x="77" y="-184"/>
      <point x="37" y="-194" type="curve"/>
    </contour>
    <contour>
      <point x="100.0" y="0.0" type="move" name="_bottom"/>
    </contour>
  </outline>
</glyph>
<glyph name="dagger" format="1">
  <advance width="496"/>
  <unicode hex="2020"/>
  <outline>
    <contour>
      <point x="230" y="-97" type="line"/>
      <point x="266" y="-97" type="line"/>
      <point x="291" y="364" type="line"/>
      <point x="266" y="456" type="line"/>
      <point x="230" y="456" type="line"/>
      <point x="205" y="364" type="line"/>
    </contour>
    <contour>
      <point x="230" y="532" type="line"/>
      <point x="266" y="532" type="line"/>
      <point x="294" y="672" type="line"/>
      <point x="203" y="672" type="line"/>
    </contour>
    <contour>
      <point x="50" y="455" type="line"/>
      <point x="212" y="479" type="line"/>
      <point x="212" y="509" type="line"/>
      <point x="50" y="533" type="line"/>
    </contour>
    <contour>
      <point x="446" y="455" type="line"/>
      <point x="446" y="533" type="line"/>
      <point x="285" y="509" type="line"/>
      <point x="285" y="479" type="line"/>
    </contour>
  </outline>
</glyph>
<glyph name="bullet" format="1">
  <advance width="381"/>
  <unicode hex="2022"/>
  <outline>
    <contour>
      <point x="189" y="342" type="curve"/>
      <point x="147.976203346" y="308.790259852"/>
      <point x="98.6825302455" y="263.023795368"/>
      <point x="70" y="220" type="curve"/>
      <point x="97.6552577181" y="176.541737872"/>
      <point x="146.469831469" y="131.403937928"/>
      <point x="189" y="99" type="curve"/>
      <point x="236.731685143" y="132.204650534"/>
      <point x="278.190321131" y="177.540415581"/>
      <point x="311" y="220" type="curve"/>
      <point x="276.590532198" y="262.505813168"/>
      <point x="234.459043805" y="308.399837187"/>
    </contour>
  </outline>
</glyph>
<glyph name="perthousand" format="1">
  <advance width="1126"/>
  <unicode hex="2030"/>
  <outline>
    <contour>
      <point x="260" y="475" type="curve" smooth="yes"/>
      <point x="260" y="381"/>
      <point x="210" y="363"/>
      <point x="176" y="363" type="curve" smooth="yes"/>
      <point x="128" y="363"/>
      <point x="89" y="400"/>
      <point x="89" y="470" type="curve" smooth="yes"/>
      <point x="89" y="566"/>
      <point x="138" y="584"/>
      <point x="172" y="584" type="curve" smooth="yes"/>
      <point x="220" y="584"/>
      <point x="260" y="544"/>
    </contour>
    <contour>
      <point x="330" y="477" type="curve" smooth="yes"/>
      <point x="330" y="607"/>
      <point x="232" y="633"/>
      <point x="181" y="633" type="curve" smooth="yes"/>
      <point x="118" y="633"/>
      <point x="18" y="599"/>
      <point x="18" y="470" type="curve" smooth="yes"/>
      <point x="18" y="340"/>
      <point x="115" y="314"/>
      <point x="166" y="314" type="curve" smooth="yes"/>
      <point x="231" y="314"/>
      <point x="330" y="348"/>
    </contour>
    <contour>
      <point x="123" y="-4" type="line"/>
      <point x="170" y="-32" type="line"/>
      <point x="397" y="294" type="line"/>
      <point x="635" y="614" type="line"/>
      <point x="588" y="643" type="line"/>
      <point x="361" y="317" type="line"/>
    </contour>
    <contour>
      <point x="672" y="145" type="curve" smooth="yes"/>
      <point x="672" y="51"/>
      <point x="622" y="33"/>
      <point x="588" y="33" type="curve" smooth="yes"/>
      <point x="540" y="33"/>
      <point x="501" y="70"/>
      <point x="501" y="140" type="curve" smooth="yes"/>
      <point x="501" y="236"/>
      <point x="550" y="254"/>
      <point x="584" y="254" type="curve" smooth="yes"/>
      <point x="632" y="254"/>
      <point x="672" y="214"/>
    </contour>
    <contour>
      <point x="742" y="147" type="curve" smooth="yes"/>
      <point x="742" y="277"/>
      <point x="644" y="303"/>
      <point x="593" y="303" type="curve" smooth="yes"/>
      <point x="530" y="303"/>
      <point x="430" y="269"/>
      <point x="430" y="140" type="curve" smooth="yes"/>
      <point x="430" y="10"/>
      <point x="527" y="-16"/>
      <point x="578" y="-16" type="curve" smooth="yes"/>
      <point x="643" y="-16"/>
      <point x="742" y="18"/>
    </contour>
    <contour>
      <point x="1024" y="145" type="curve" smooth="yes"/>
      <point x="1024" y="51"/>
      <point x="974" y="33"/>
      <point x="940" y="33" type="curve" smooth="yes"/>
      <point x="892" y="33"/>
      <point x="853" y="70"/>
      <point x="853" y="140" type="curve" smooth="yes"/>
      <point x="853" y="236"/>
      <point x="902" y="254"/>
      <point x="936" y="254" type="curve" smooth="yes"/>
      <point x="984" y="254"/>
      <point x="1024" y="214"/>
    </contour>
    <contour>
      <point x="1094" y="147" type="curve" smooth="yes"/>
      <point x="1094" y="277"/>
      <point x="996" y="303"/>
      <point x="945" y="303" type="curve" smooth="yes"/>
      <point x="882" y="303"/>
      <point x="782" y="269"/>
      <point x="782" y="140" type="curve" smooth="yes"/>
      <point x="782" y="10"/>
      <point x="879" y="-16"/>
      <point x="930" y="-16" type="curve" smooth="yes"/>
      <point x="995" y="-16"/>
      <point x="1094" y="18"/>
    </contour>
  </outline>
</glyph>
<glyph name="guilsinglleft" format="1">
  <advance width="358"/>
  <unicode hex="2039"/>
  <outline>
    <contour>
      <point x="261" y="43" type="line"/>
      <point x="299" y="82" type="line"/>
      <point x="154" y="242" type="line"/>
      <point x="299" y="402" type="line"/>
      <point x="261" y="441" type="line"/>
      <point x="58" y="250" type="line"/>
      <point x="58" y="234" type="line"/>
    </contour>
  </outline>
</glyph>
<glyph name="guilsinglright" format="1">
  <advance width="399"/>
  <unicode hex="203A"/>
  <outline>
    <contour>
      <point x="117" y="43" type="line"/>
      <point x="320" y="234" type="line"/>
      <point x="320" y="250" type="line"/>
      <point x="117" y="441" type="line"/>
      <point x="79" y="402" type="line"/>
      <point x="224" y="242" type="line"/>
      <point x="79" y="82" type="line"/>
    </contour>
  </outline>
</glyph>
<glyph name="Euro" format="1">
  <advance width="604"/>
  <unicode hex="20AC"/>
  <outline>
    <contour>
      <point x="40" y="236" type="line"/>
      <point x="475" y="236" type="line"/>
      <point x="481" y="282" type="line"/>
      <point x="46" y="282" type="line"/>
    </contour>
    <contour>
      <point x="40" y="336" type="line"/>
      <point x="475" y="336" type="line"/>
      <point x="481" y="382" type="line"/>
      <point x="46" y="382" type="line"/>
    </contour>
    <contour>
      <point x="370" y="-15" type="curve" smooth="yes"/>
      <point x="440" y="-15"/>
      <point x="509" y="3"/>
      <point x="564" y="61" type="curve"/>
      <point x="545" y="101" type="line"/>
      <point x="505" y="61"/>
      <point x="457" y="47"/>
      <point x="408" y="47" type="curve" smooth="yes"/>
      <point x="265" y="47"/>
      <point x="185" y="165"/>
      <point x="185" y="308" type="curve" smooth="yes"/>
      <point x="185" y="460"/>
      <point x="233" y="604"/>
      <point x="385" y="604" type="curve" smooth="yes"/>
      <point x="426" y="604"/>
      <point x="465" y="592"/>
      <point x="502" y="574" type="curve"/>
      <point x="471" y="617" type="line"/>
      <point x="492" y="472" type="line"/>
      <point x="539" y="472" type="line"/>
      <point x="546" y="648" type="line"/>
      <point x="495" y="637" type="line"/>
      <point x="460" y="650"/>
      <point x="423" y="655"/>
      <point x="386" y="655" type="curve" smooth="yes"/>
      <point x="193" y="655"/>
      <point x="102" y="484"/>
      <point x="102" y="303" type="curve" smooth="yes"/>
      <point x="102" y="122"/>
      <point x="201" y="-15"/>
    </contour>
  </outline>
</glyph>
<glyph name="minus" format="1">
  <advance width="552"/>
  <unicode hex="2212"/>
  <outline>
    <contour>
      <point x="50" y="262" type="line"/>
      <point x="502" y="262" type="line"/>
      <point x="502" y="316" type="line"/>
      <point x="50" y="316" type="line"/>
    </contour>
  </outline>
</glyph>
<glyph name="approxequal" format="1">
  <advance width="516"/>
  <unicode hex="2248"/>
  <outline>
    <contour>
      <point x="139" y="405" type="curve" smooth="yes"/>
      <point x="210" y="405"/>
      <point x="291" y="328"/>
      <point x="373" y="328" type="curve" smooth="yes"/>
      <point x="434" y="328"/>
      <point x="486" y="366"/>
      <point x="486" y="444" type="curve"/>
      <point x="445" y="444" type="line"/>
      <point x="442" y="397"/>
      <point x="416" y="378"/>
      <point x="376" y="378" type="curve" smooth="yes"/>
      <point x="302" y="378"/>
      <point x="220" y="457"/>
      <point x="142" y="457" type="curve" smooth="yes"/>
      <point x="81" y="457"/>
      <point x="30" y="412"/>
      <point x="30" y="334" type="curve"/>
      <point x="70" y="334" type="line"/>
      <point x="73" y="384"/>
      <point x="100" y="405"/>
    </contour>
    <contour>
      <point x="139" y="226" type="curve" smooth="yes"/>
      <point x="210" y="226"/>
      <point x="291" y="149"/>
      <point x="373" y="149" type="curve" smooth="yes"/>
      <point x="434" y="149"/>
      <point x="486" y="187"/>
      <point x="486" y="265" type="curve"/>
      <point x="445" y="265" type="line"/>
      <point x="442" y="218"/>
      <point x="416" y="199"/>
      <point x="376" y="199" type="curve" smooth="yes"/>
      <point x="302" y="199"/>
      <point x="220" y="278"/>
      <point x="142" y="278" type="curve" smooth="yes"/>
      <point x="81" y="278"/>
      <point x="30" y="233"/>
      <point x="30" y="155" type="curve"/>
      <point x="70" y="155" type="line"/>
      <point x="73" y="205"/>
      <point x="100" y="226"/>
    </contour>
  </outline>
</glyph>
<glyph name="greaterequal" format="1">
  <advance width="492"/>
  <unicode hex="2265"/>
  <outline>
    <contour>
      <point x="45" y="274" type="line"/>
      <point x="45" y="225" type="line"/>
      <point x="447" y="408" type="line"/>
      <point x="447" y="479" type="line"/>
      <point x="45" y="662" type="line"/>
      <point x="45" y="612" type="line"/>
      <point x="403" y="451" type="line"/>
      <point x="403" y="435" type="line"/>
    </contour>
    <contour>
      <point x="472" y="130" type="line"/>
      <point x="20" y="130" type="line"/>
      <point x="20" y="85" type="line"/>
      <point x="472" y="85" type="line"/>
    </contour>
  </outline>
</glyph>
<glyph name="zero.LT" format="1">
  <advance width="581"/>
  <unicode hex="E000"/>
  <outline>
    <contour>
      <point x="531" y="306" type="curve" smooth="yes"/>
      <point x="531" y="490"/>
      <point x="453" y="628"/>
      <point x="294" y="628" type="curve" smooth="yes"/>
      <point x="143" y="628"/>
      <point x="50" y="490"/>
      <point x="50" y="306" type="curve" smooth="yes"/>
      <point x="50" y="123"/>
      <point x="128" y="-15"/>
      <point x="287" y="-15" type="curve" smooth="yes"/>
      <point x="438" y="-15"/>
      <point x="531" y="123"/>
    </contour>
    <contour>
      <point x="427" y="306" type="curve" smooth="yes"/>
      <point x="427" y="113"/>
      <point x="366" y="33"/>
      <point x="299" y="33" type="curve" smooth="yes"/>
      <point x="223" y="33"/>
      <point x="154" y="89"/>
      <point x="154" y="306" type="curve" smooth="yes"/>
      <point x="154" y="523"/>
      <point x="215" y="579"/>
      <point x="282" y="579" type="curve" smooth="yes"/>
      <point x="358" y="579"/>
      <point x="427" y="500"/>
    </contour>
  </outline>
</glyph>
<glyph name="one.LT" format="1">
  <advance width="396"/>
  <unicode hex="E001"/>
  <outline>
    <contour>
      <point x="50" y="41" type="line"/>
      <point x="50" y="0" type="line"/>
      <point x="346" y="0" type="line" smooth="yes"/>
      <point x="346" y="41" type="line"/>
      <point x="245" y="51" type="line"/>
      <point x="158" y="51" type="line"/>
    </contour>
    <contour>
      <point x="244" y="0" type="line"/>
      <point x="244" y="647" type="line"/>
      <point x="226" y="647" type="line"/>
      <point x="53" y="594" type="line"/>
      <point x="53" y="558" type="line"/>
      <point x="159" y="558" type="line"/>
      <point x="159" y="0" type="line"/>
    </contour>
  </outline>
</glyph>
<glyph name="two.LT" format="1">
  <advance width="539"/>
  <unicode hex="E002"/>
  <outline>
    <contour>
      <point x="473" y="0" type="move"/>
      <point x="489" y="192" type="line"/>
      <point x="448" y="192" type="line"/>
      <point x="423" y="95" type="line" smooth="yes"/>
      <point x="416" y="67"/>
      <point x="400" y="60"/>
      <point x="379" y="60" type="curve" smooth="yes"/>
      <point x="152" y="60" type="line"/>
      <point x="241" y="176"/>
      <point x="458" y="294"/>
      <point x="458" y="455" type="curve" smooth="yes"/>
      <point x="458" y="571"/>
      <point x="379" y="635"/>
      <point x="271" y="635" type="curve" smooth="yes"/>
      <point x="167" y="635"/>
      <point x="63" y="563"/>
      <point x="63" y="459" type="curve" smooth="yes"/>
      <point x="63" y="419"/>
      <point x="93" y="398"/>
      <point x="134" y="401" type="curve"/>
      <point x="145" y="559" type="line"/>
      <point x="256" y="587"/>
      <point x="360" y="565"/>
      <point x="360" y="444" type="curve" smooth="yes"/>
      <point x="360" y="336"/>
      <point x="223" y="258"/>
      <point x="50" y="42" type="curve"/>
      <point x="56" y="0" type="line"/>
      <point x="469" y="0" type="line"/>
    </contour>
  </outline>
</glyph>
<glyph name="four.LT" format="1">
  <advance width="594"/>
  <unicode hex="E004"/>
  <outline>
    <contour>
      <point x="421" y="0" type="line"/>
      <point x="421" y="173" type="line"/>
      <point x="544" y="173" type="line"/>
      <point x="544" y="239" type="line"/>
      <point x="421" y="239" type="line"/>
      <point x="421" y="641" type="line"/>
      <point x="339" y="641" type="line"/>
      <point x="50" y="209" type="line"/>
      <point x="50" y="173" type="line"/>
      <point x="339" y="173" type="line"/>
      <point x="339" y="0" type="line"/>
    </contour>
    <contour>
      <point x="96" y="239" type="line"/>
      <point x="111" y="213" type="line"/>
      <point x="354" y="575" type="line"/>
      <point x="339" y="579" type="line"/>
      <point x="339" y="239" type="line"/>
    </contour>
    <contour>
      <point x="231" y="41" type="line"/>
      <point x="231" y="0" type="line"/>
      <point x="512" y="0" type="line" smooth="yes"/>
      <point x="512" y="41" type="line"/>
      <point x="421" y="51" type="line"/>
      <point x="339" y="51" type="line"/>
    </contour>
  </outline>
</glyph>
<glyph name="five.LT" format="1">
  <advance width="490"/>
  <unicode hex="E005"/>
  <outline>
    <contour>
      <point x="195" y="-20" type="curve" smooth="yes"/>
      <point x="105" y="-20"/>
      <point x="50" y="24"/>
      <point x="50" y="96" type="curve" smooth="yes"/>
      <point x="50" y="136"/>
      <point x="84" y="161"/>
      <point x="117" y="145" type="curve"/>
      <point x="151" y="4" type="line"/>
      <point x="100" y="34" type="line"/>
      <point x="142" y="27"/>
      <point x="155" y="26"/>
      <point x="199" y="26" type="curve" smooth="yes"/>
      <point x="285" y="26"/>
      <point x="361" y="99"/>
      <point x="361" y="182" type="curve" smooth="yes"/>
      <point x="361" y="307"/>
      <point x="239" y="326"/>
      <point x="93" y="333" type="curve"/>
      <point x="126" y="641" type="line"/>
      <point x="433" y="641" type="line"/>
      <point x="425" y="556" type="line"/>
      <point x="168" y="556" type="line"/>
      <point x="153" y="402" type="line"/>
      <point x="144" y="422" type="line"/>
      <point x="297" y="413"/>
      <point x="440" y="374"/>
      <point x="440" y="208" type="curve" smooth="yes"/>
      <point x="440" y="83"/>
      <point x="350" y="-20"/>
    </contour>
  </outline>
</glyph>
<glyph name="six.LT" format="1">
  <advance width="543"/>
  <unicode hex="E006"/>
  <outline>
    <contour>
      <point x="414" y="104"/>
      <point x="369" y="35"/>
      <point x="286" y="35" type="curve" smooth="yes"/>
      <point x="188" y="35"/>
      <point x="137" y="121"/>
      <point x="137" y="285" type="curve" smooth="yes"/>
      <point x="137" y="455"/>
      <point x="247" y="585"/>
      <point x="416" y="585" type="curve" smooth="yes"/>
      <point x="439" y="585"/>
      <point x="462" y="583"/>
      <point x="485" y="580" type="curve"/>
      <point x="485" y="630" type="line"/>
      <point x="454" y="641"/>
      <point x="422" y="647"/>
      <point x="390" y="647" type="curve" smooth="yes"/>
      <point x="181" y="647"/>
      <point x="50" y="482"/>
      <point x="50" y="268" type="curve" smooth="yes"/>
      <point x="50" y="114"/>
      <point x="123" y="-15"/>
      <point x="286" y="-15" type="curve" smooth="yes"/>
      <point x="409" y="-15"/>
      <point x="493" y="73"/>
      <point x="493" y="196" type="curve" smooth="yes"/>
      <point x="493" y="301"/>
      <point x="412" y="375"/>
      <point x="298" y="375" type="curve" smooth="yes"/>
      <point x="234" y="375"/>
      <point x="169" y="359"/>
      <point x="122" y="297" type="curve"/>
      <point x="122" y="277" type="line"/>
      <point x="164" y="306"/>
      <point x="209" y="321"/>
      <point x="266" y="321" type="curve" smooth="yes"/>
      <point x="353" y="321"/>
      <point x="414" y="265"/>
      <point x="414" y="187" type="curve" smooth="yes"/>
    </contour>
  </outline>
</glyph>
<glyph name="nine.LT" format="1">
  <advance width="543"/>
  <unicode hex="E009"/>
  <outline>
    <contour>
      <point x="139" y="541"/>
      <point x="190" y="587"/>
      <point x="267" y="587" type="curve" smooth="yes"/>
      <point x="386" y="587"/>
      <point x="406" y="466"/>
      <point x="406" y="347" type="curve" smooth="yes"/>
      <point x="406" y="177"/>
      <point x="296" y="47"/>
      <point x="127" y="47" type="curve" smooth="yes"/>
      <point x="104" y="47"/>
      <point x="81" y="49"/>
      <point x="58" y="52" type="curve"/>
      <point x="58" y="2" type="line"/>
      <point x="89" y="-9"/>
      <point x="121" y="-15"/>
      <point x="153" y="-15" type="curve" smooth="yes"/>
      <point x="362" y="-15"/>
      <point x="493" y="150"/>
      <point x="493" y="364" type="curve" smooth="yes"/>
      <point x="493" y="515"/>
      <point x="416" y="647"/>
      <point x="260" y="647" type="curve" smooth="yes"/>
      <point x="142" y="647"/>
      <point x="50" y="555"/>
      <point x="50" y="426" type="curve" smooth="yes"/>
      <point x="50" y="309"/>
      <point x="131" y="227"/>
      <point x="245" y="227" type="curve" smooth="yes"/>
      <point x="309" y="227"/>
      <point x="374" y="243"/>
      <point x="421" y="305" type="curve"/>
      <point x="421" y="325" type="line"/>
      <point x="379" y="296"/>
      <point x="334" y="281"/>
      <point x="277" y="281" type="curve" smooth="yes"/>
      <point x="196" y="281"/>
      <point x="139" y="345"/>
      <point x="139" y="435" type="curve" smooth="yes"/>
    </contour>
  </outline>
</glyph>
<glyph name="alt11" format="1">
  <advance width="782"/>
  <outline>
    <contour>
      <point x="99" y="259" type="line"/>
      <point x="40" y="185" type="line"/>
      <point x="83" y="185" type="line"/>
      <point x="142" y="259" type="line"/>
      <point x="165" y="259" type="line"/>
      <point x="106" y="185" type="line"/>
      <point x="149" y="185" type="line"/>
      <point x="207" y="259" type="line"/>
      <point x="230" y="259" type="line"/>
      <point x="171" y="185" type="line"/>
      <point x="213" y="185" type="line"/>
      <point x="272" y="259" type="line"/>
      <point x="295" y="259" type="line"/>
      <point x="237" y="185" type="line"/>
      <point x="279" y="185" type="line"/>
      <point x="337" y="259" type="line"/>
      <point x="512" y="259" type="line"/>
      <point x="467" y="174" type="line"/>
      <point x="710" y="280" type="line"/>
      <point x="467" y="378" type="line"/>
      <point x="509" y="300" type="line"/>
      <point x="337" y="300" type="line"/>
      <point x="279" y="373" type="line"/>
      <point x="237" y="373" type="line"/>
      <point x="295" y="300" type="line"/>
      <point x="272" y="300" type="line"/>
      <point x="213" y="373" type="line"/>
      <point x="171" y="373" type="line"/>
      <point x="230" y="300" type="line"/>
      <point x="207" y="300" type="line"/>
      <point x="149" y="373" type="line"/>
      <point x="106" y="373" type="line"/>
      <point x="165" y="300" type="line"/>
      <point x="142" y="300" type="line"/>
      <point x="83" y="373" type="line"/>
      <point x="40" y="373" type="line"/>
      <point x="99" y="300" type="line"/>
      <point x="63" y="300" type="line"/>
      <point x="63" y="259" type="line"/>
    </contour>
  </outline>
</glyph>
<glyph name="alt12" format="1">
  <advance width="0"/>
  <outline>
    <contour>
      <point x="16" y="640" type="line"/>
      <point x="100" y="633" type="line"/>
      <point x="74" y="553" type="line"/>
      <point x="98" y="532" type="line"/>
      <point x="151" y="599" type="line"/>
      <point x="203" y="539" type="line"/>
      <point x="233" y="549" type="line"/>
      <point x="201" y="634" type="line"/>
      <point x="279" y="643" type="line"/>
      <point x="285" y="674" type="line"/>
      <point x="201" y="681" type="line"/>
      <point x="227" y="761" type="line"/>
      <point x="203" y="782" type="line"/>
      <point x="149" y="713" type="line"/>
      <point x="98" y="775" type="line"/>
      <point x="68" y="765" type="line"/>
      <point x="99" y="680" type="line"/>
      <point x="22" y="671" type="line"/>
    </contour>
  </outline>
</glyph>
<glyph name="alt15" format="1">
  <advance width="604"/>
  <outline>
    <contour>
      <point x="454" y="309" type="line"/>
      <point x="548" y="403" type="line"/>
      <point x="503" y="448" type="line"/>
      <point x="365" y="309" type="line"/>
      <point x="503" y="170" type="line"/>
      <point x="548" y="215" type="line"/>
    </contour>
    <contour>
      <point x="231" y="309" type="line"/>
      <point x="137" y="215" type="line"/>
      <point x="182" y="170" type="line"/>
      <point x="320" y="309" type="line"/>
      <point x="182" y="448" type="line"/>
      <point x="137" y="403" type="line"/>
    </contour>
    <contour>
      <point x="342" y="420" type="line"/>
      <point x="248" y="514" type="line"/>
      <point x="203" y="469" type="line"/>
      <point x="342" y="331" type="line"/>
      <point x="481" y="469" type="line"/>
      <point x="436" y="514" type="line"/>
    </contour>
    <contour>
      <point x="342" y="198" type="line"/>
      <point x="436" y="104" type="line"/>
      <point x="481" y="149" type="line"/>
      <point x="342" y="287" type="line"/>
      <point x="203" y="149" type="line"/>
      <point x="248" y="104" type="line"/>
    </contour>
  </outline>
</glyph>
<glyph name="alt16" format="1">
  <advance width="683"/>
  <outline>
    <contour>
      <point x="342" y="168" type="line"/>
      <point x="436" y="74" type="line"/>
      <point x="481" y="119" type="line"/>
      <point x="342" y="257" type="line"/>
      <point x="203" y="119" type="line"/>
      <point x="248" y="74" type="line"/>
    </contour>
    <contour>
      <point x="342" y="450" type="line"/>
      <point x="248" y="544" type="line"/>
      <point x="203" y="499" type="line"/>
      <point x="342" y="361" type="line"/>
      <point x="481" y="499" type="line"/>
      <point x="436" y="544" type="line"/>
    </contour>
    <contour>
      <point x="201" y="309" type="line"/>
      <point x="107" y="215" type="line"/>
      <point x="152" y="170" type="line"/>
      <point x="290" y="309" type="line"/>
      <point x="152" y="448" type="line"/>
      <point x="107" y="403" type="line"/>
    </contour>
    <contour>
      <point x="484" y="309" type="line"/>
      <point x="578" y="403" type="line"/>
      <point x="533" y="448" type="line"/>
      <point x="395" y="309" type="line"/>
      <point x="533" y="170" type="line"/>
      <point x="578" y="215" type="line"/>
    </contour>
  </outline>
</glyph>
<glyph name="alt17" format="1">
  <advance width="637"/>
  <outline>
    <contour>
      <point x="319" y="138" type="line"/>
      <point x="413" y="44" type="line"/>
      <point x="458" y="89" type="line"/>
      <point x="319" y="227" type="line"/>
      <point x="180" y="89" type="line"/>
      <point x="225" y="44" type="line"/>
    </contour>
    <contour>
      <point x="319" y="480" type="line"/>
      <point x="225" y="574" type="line"/>
      <point x="180" y="529" type="line"/>
      <point x="319" y="391" type="line"/>
      <point x="458" y="529" type="line"/>
      <point x="413" y="574" type="line"/>
    </contour>
    <contour>
      <point x="148" y="309" type="line"/>
      <point x="54" y="215" type="line"/>
      <point x="99" y="170" type="line"/>
      <point x="237" y="309" type="line"/>
      <point x="99" y="448" type="line"/>
      <point x="54" y="403" type="line"/>
    </contour>
    <contour>
      <point x="491" y="309" type="line"/>
      <point x="585" y="403" type="line"/>
      <point x="540" y="448" type="line"/>
      <point x="402" y="309" type="line"/>
      <point x="540" y="170" type="line"/>
      <point x="585" y="215" type="line"/>
    </contour>
    <contour>
      <point x="319" y="267" type="line"/>
      <point x="277" y="309" type="line"/>
      <point x="319" y="351" type="line"/>
      <point x="362" y="309" type="line"/>
    </contour>
  </outline>
</glyph>
<glyph name="dieresis.case" format="1">
  <advance width="296"/>
  <outline>
    <contour>
      <point x="0" y="759" type="curve" smooth="yes"/>
      <point x="0" y="726"/>
      <point x="25" y="703"/>
      <point x="58" y="703" type="curve" smooth="yes"/>
      <point x="91" y="703"/>
      <point x="115" y="726"/>
      <point x="115" y="759" type="curve" smooth="yes"/>
      <point x="115" y="791"/>
      <point x="90" y="813"/>
      <point x="58" y="813" type="curve" smooth="yes"/>
      <point x="25" y="813"/>
      <point x="0" y="792"/>
    </contour>
    <contour>
      <point x="181" y="759" type="curve" smooth="yes"/>
      <point x="181" y="726"/>
      <point x="206" y="703"/>
      <point x="239" y="703" type="curve" smooth="yes"/>
      <point x="272" y="703"/>
      <point x="296" y="726"/>
      <point x="296" y="759" type="curve" smooth="yes"/>
      <point x="296" y="791"/>
      <point x="271" y="813"/>
      <point x="239" y="813" type="curve" smooth="yes"/>
      <point x="206" y="813"/>
      <point x="181" y="792"/>
    </contour>
    <contour>
      <point x="148" y="642" type="move" name="_topuc"/>
    </contour>
  </outline>
</glyph>
<glyph name="eight.LP" format="1">
  <advance width="529"/>
  <outline>
    <contour>
      <point x="477" y="158" type="curve" smooth="yes"/>
      <point x="477" y="248"/>
      <point x="409" y="304"/>
      <point x="330" y="341" type="curve"/>
      <point x="392" y="376"/>
      <point x="444" y="419"/>
      <point x="444" y="491" type="curve" smooth="yes"/>
      <point x="444" y="591"/>
      <point x="365" y="648"/>
      <point x="268" y="648" type="curve" smooth="yes"/>
      <point x="167" y="648"/>
      <point x="92" y="581"/>
      <point x="92" y="477" type="curve" smooth="yes"/>
      <point x="92" y="408"/>
      <point x="137" y="362"/>
      <point x="195" y="329" type="curve"/>
      <point x="123" y="285"/>
      <point x="57" y="235"/>
      <point x="57" y="148" type="curve" smooth="yes"/>
      <point x="57" y="37"/>
      <point x="155" y="-16"/>
      <point x="263" y="-16" type="curve" smooth="yes"/>
      <point x="375" y="-16"/>
      <point x="477" y="43"/>
    </contour>
    <contour>
      <point x="387" y="146" type="curve" smooth="yes"/>
      <point x="387" y="78"/>
      <point x="332" y="40"/>
      <point x="266" y="40" type="curve" smooth="yes"/>
      <point x="197" y="40"/>
      <point x="148" y="88"/>
      <point x="148" y="159" type="curve" smooth="yes"/>
      <point x="148" y="218"/>
      <point x="181" y="264"/>
      <point x="224" y="304" type="curve"/>
      <point x="302" y="270"/>
      <point x="387" y="234"/>
    </contour>
    <contour>
      <point x="172" y="502" type="curve" smooth="yes"/>
      <point x="172" y="560"/>
      <point x="211" y="598"/>
      <point x="268" y="598" type="curve" smooth="yes"/>
      <point x="323" y="598"/>
      <point x="357" y="555"/>
      <point x="357" y="498" type="curve" smooth="yes"/>
      <point x="357" y="444"/>
      <point x="334" y="397"/>
      <point x="292" y="364" type="curve"/>
      <point x="235" y="398"/>
      <point x="172" y="434"/>
    </contour>
  </outline>
</glyph>
<glyph name="f_l" format="1">
  <advance width="616"/>
  <outline>
    <contour>
      <point x="25" y="0" type="line"/>
      <point x="275" y="0" type="line"/>
      <point x="275" y="44" type="line"/>
      <point x="147" y="53" type="line"/>
      <point x="177" y="21" type="line"/>
      <point x="177" y="385" type="line"/>
      <point x="394" y="385" type="line"/>
      <point x="394" y="444" type="line"/>
      <point x="177" y="444" type="line"/>
      <point x="177" y="498" type="line" smooth="yes"/>
      <point x="177" y="596"/>
      <point x="224" y="630"/>
      <point x="318" y="598" type="curve" smooth="yes"/>
      <point x="394" y="572" type="line"/>
      <point x="418" y="617"/>
      <point x="409" y="666"/>
      <point x="334" y="666" type="curve" smooth="yes"/>
      <point x="196" y="666"/>
      <point x="114" y="599"/>
      <point x="103" y="486" type="curve" smooth="yes"/>
      <point x="99" y="444" type="line"/>
      <point x="19" y="434" type="line"/>
      <point x="19" y="385" type="line"/>
      <point x="97" y="385" type="line"/>
      <point x="97" y="21" type="line"/>
      <point x="127" y="55" type="line"/>
      <point x="25" y="41" type="line"/>
    </contour>
    <component base="l" xOffset="274"/>
  </outline>
</glyph>
<glyph name="five.LP" format="1">
  <advance width="482"/>
  <outline>
    <contour>
      <point x="176" y="-20" type="curve" smooth="yes"/>
      <point x="86" y="-20"/>
      <point x="31" y="24"/>
      <point x="31" y="96" type="curve" smooth="yes"/>
      <point x="31" y="136"/>
      <point x="65" y="161"/>
      <point x="98" y="145" type="curve"/>
      <point x="132" y="4" type="line"/>
      <point x="81" y="34" type="line"/>
      <point x="123" y="27"/>
      <point x="136" y="26"/>
      <point x="180" y="26" type="curve" smooth="yes"/>
      <point x="266" y="26"/>
      <point x="342" y="99"/>
      <point x="342" y="182" type="curve" smooth="yes"/>
      <point x="342" y="307"/>
      <point x="220" y="326"/>
      <point x="74" y="333" type="curve"/>
      <point x="107" y="641" type="line"/>
      <point x="414" y="641" type="line"/>
      <point x="406" y="556" type="line"/>
      <point x="149" y="556" type="line"/>
      <point x="134" y="402" type="line"/>
      <point x="125" y="422" type="line"/>
      <point x="278" y="413"/>
      <point x="421" y="374"/>
      <point x="421" y="208" type="curve" smooth="yes"/>
      <point x="421" y="83"/>
      <point x="331" y="-20"/>
    </contour>
  </outline>
</glyph>
<glyph name="four.LP" format="1">
  <advance width="556"/>
  <outline>
    <contour>
      <point x="410" y="0" type="line"/>
      <point x="410" y="173" type="line"/>
      <point x="533" y="173" type="line"/>
      <point x="533" y="239" type="line"/>
      <point x="410" y="239" type="line"/>
      <point x="410" y="641" type="line"/>
      <point x="328" y="641" type="line"/>
      <point x="39" y="209" type="line"/>
      <point x="39" y="173" type="line"/>
      <point x="328" y="173" type="line"/>
      <point x="328" y="0" type="line"/>
    </contour>
    <contour>
      <point x="85" y="239" type="line"/>
      <point x="100" y="213" type="line"/>
      <point x="343" y="575" type="line"/>
      <point x="328" y="579" type="line"/>
      <point x="328" y="239" type="line"/>
    </contour>
    <contour>
      <point x="220" y="41" type="line"/>
      <point x="220" y="0" type="line"/>
      <point x="501" y="0" type="line" smooth="yes"/>
      <point x="501" y="41" type="line"/>
      <point x="410" y="51" type="line"/>
      <point x="328" y="51" type="line"/>
    </contour>
  </outline>
</glyph>
<glyph name="hungarumlaut.case" format="1">
  <advance width="347"/>
  <outline>
    <contour>
      <point x="111" y="851" type="line"/>
      <point x="40" y="705" type="line"/>
      <point x="77" y="694" type="line"/>
      <point x="188" y="824" type="line"/>
      <point x="188" y="827" type="line"/>
    </contour>
    <contour>
      <point x="230" y="851" type="line"/>
      <point x="159" y="705" type="line"/>
      <point x="196" y="694" type="line"/>
      <point x="307" y="824" type="line"/>
      <point x="307" y="827" type="line"/>
    </contour>
    <contour>
      <point x="76.0" y="642.0" type="move" name="_topuc"/>
    </contour>
  </outline>
</glyph>
<glyph name="macron.case" format="1">
  <advance width="265"/>
  <outline>
    <contour>
      <point x="0" y="730" type="line"/>
      <point x="265" y="730" type="line"/>
      <point x="265" y="785" type="line"/>
      <point x="0" y="785" type="line"/>
    </contour>
    <contour>
      <point x="132" y="642" type="move" name="_topuc"/>
    </contour>
  </outline>
</glyph>
<glyph name="one.LP" format="1">
  <advance width="372"/>
  <outline>
    <contour>
      <point x="44" y="41" type="line"/>
      <point x="44" y="0" type="line"/>
      <point x="340" y="0" type="line" smooth="yes"/>
      <point x="340" y="41" type="line"/>
      <point x="239" y="51" type="line"/>
      <point x="152" y="51" type="line"/>
    </contour>
    <contour>
      <point x="238" y="0" type="line"/>
      <point x="238" y="647" type="line"/>
      <point x="220" y="647" type="line"/>
      <point x="47" y="594" type="line"/>
      <point x="47" y="558" type="line"/>
      <point x="153" y="558" type="line"/>
      <point x="153" y="0" type="line"/>
    </contour>
  </outline>
</glyph>
<glyph name="ring:acute" format="1">
  <advance width="275"/>
  <outline>
    <contour>
      <point x="93" y="580" type="curve" smooth="yes"/>
      <point x="93" y="607"/>
      <point x="110" y="627"/>
      <point x="137" y="627" type="curve" smooth="yes"/>
      <point x="164" y="627"/>
      <point x="181" y="607"/>
      <point x="181" y="580" type="curve" smooth="yes"/>
      <point x="181" y="554"/>
      <point x="163" y="534"/>
      <point x="137" y="534" type="curve" smooth="yes"/>
      <point x="110" y="534"/>
      <point x="93" y="553"/>
    </contour>
    <contour>
      <point x="52" y="580" type="curve" smooth="yes"/>
      <point x="52" y="532"/>
      <point x="89" y="499"/>
      <point x="137" y="499" type="curve" smooth="yes"/>
      <point x="185" y="499"/>
      <point x="223" y="532"/>
      <point x="223" y="580" type="curve" smooth="yes"/>
      <point x="223" y="628"/>
      <point x="185" y="661"/>
      <point x="137" y="661" type="curve" smooth="yes"/>
      <point x="89" y="661"/>
      <point x="52" y="628"/>
    </contour>
    <contour>
      <point x="167" y="847" type="line"/>
      <point x="104" y="705" type="line"/>
      <point x="130" y="691" type="line"/>
      <point x="237" y="844" type="line"/>
      <point x="237" y="851" type="line"/>
    </contour>
    <contour>
      <point x="137" y="444" type="move" name="_toplc"/>
    </contour>
  </outline>
</glyph>
<glyph name="tilde.case" format="1">
  <advance width="347"/>
  <outline>
    <contour>
      <point x="239" y="764" type="curve" smooth="yes"/>
      <point x="200" y="764"/>
      <point x="181" y="826"/>
      <point x="117" y="826" type="curve" smooth="yes"/>
      <point x="83" y="826"/>
      <point x="51" y="803"/>
      <point x="40" y="722" type="curve"/>
      <point x="65" y="720" type="line"/>
      <point x="84" y="770"/>
      <point x="90" y="778"/>
      <point x="108" y="778" type="curve" smooth="yes"/>
      <point x="147" y="778"/>
      <point x="168" y="716"/>
      <point x="230" y="716" type="curve" smooth="yes"/>
      <point x="264" y="716"/>
      <point x="296" y="738"/>
      <point x="307" y="819" type="curve"/>
      <point x="282" y="822" type="line"/>
      <point x="263" y="772"/>
      <point x="257" y="764"/>
    </contour>
    <contour>
      <point x="173" y="642" type="move" name="_topuc"/>
    </contour>
  </outline>
</glyph>
<glyph name="two.LP" format="1">
  <advance width="528"/>
  <outline>
    <contour>
      <point x="455" y="0" type="move"/>
      <point x="471" y="192" type="line"/>
      <point x="430" y="192" type="line"/>
      <point x="405" y="95" type="line" smooth="yes"/>
      <point x="398" y="67"/>
      <point x="382" y="60"/>
      <point x="361" y="60" type="curve" smooth="yes"/>
      <point x="134" y="60" type="line"/>
      <point x="223" y="176"/>
      <point x="440.0" y="294.0"/>
      <point x="440" y="455" type="curve" smooth="yes"/>
      <point x="440.0" y="571.0"/>
      <point x="361.0" y="635.0"/>
      <point x="253" y="635" type="curve" smooth="yes"/>
      <point x="149" y="635"/>
      <point x="45" y="563"/>
      <point x="45" y="459" type="curve" smooth="yes"/>
      <point x="45" y="419"/>
      <point x="75" y="398"/>
      <point x="116" y="401" type="curve"/>
      <point x="127" y="559" type="line"/>
      <point x="238.0" y="587.0"/>
      <point x="342" y="565"/>
      <point x="342" y="444" type="curve" smooth="yes"/>
      <point x="342" y="336"/>
      <point x="205" y="258"/>
      <point x="32" y="42" type="curve"/>
      <point x="38" y="0" type="line"/>
      <point x="451" y="0" type="line"/>
    </contour>
  </outline>
</glyph>
